<?xml version="1.0" encoding="UTF-8"?>
<svg id="Layer_1" data-name="Layer 1" xmlns="http://www.w3.org/2000/svg" viewBox="0 0 1100 1100">
  <defs>
    <style>
      .cls-1 {
        fill: #6b7280;
      }

      .cls-1, .cls-2, .cls-3 {
        stroke-width: 0px;
      }

      .cls-2 {
        fill: #101827;
      }

      .cls-3 {
        fill: #f9fbfc;
      }
    </style>
  </defs>
  <path class="cls-2" d="M826.27,902.47c-10.37-2.54-21.52-1.94-32.33-2.53-3.87-.21-7.17,1.22-9.48,4.76-3.68,5.63-7.8,11.02-11.58,16.58,24.84-1.76,49.08-5.8,72.73-12.1-5.99-2.77-12.43-5.01-19.34-6.71ZM864.9,501.23c-25.82-24.85-55.04-44.45-88.57-57.31-4.68-1.8-9.74-2.96-14.73-3.56-21.02-2.52-28.35,13.01-29.23,26.61-.94,14.43,3.5,27.98,9.95,40.49,2.89,5.6,5.84,11.16,8.83,16.7,10.37.25,20.77.09,31.19-.33,2.34-.1,4.69-.21,7.03-.33,2.15-.11,4.3-.22,6.45-.35,11.42-.67,22.78-1.72,34.1-3.04,2.57-.29,5.14-.6,7.7-.92,13.03-1.64,25.99-3.6,38.95-5.7-3.66-4.24-7.56-8.31-11.67-12.26ZM826.27,902.47c-10.37-2.54-21.52-1.94-32.33-2.53-3.87-.21-7.17,1.22-9.48,4.76-3.68,5.63-7.8,11.02-11.58,16.58,24.84-1.76,49.08-5.8,72.73-12.1-5.99-2.77-12.43-5.01-19.34-6.71ZM864.9,501.23c-25.82-24.85-55.04-44.45-88.57-57.31-4.68-1.8-9.74-2.96-14.73-3.56-21.02-2.52-28.35,13.01-29.23,26.61-.94,14.43,3.5,27.98,9.95,40.49,2.89,5.6,5.84,11.16,8.83,16.7,10.37.25,20.77.09,31.19-.33,2.34-.1,4.69-.21,7.03-.33,2.15-.11,4.3-.22,6.45-.35,11.42-.67,22.78-1.72,34.1-3.04,2.57-.29,5.14-.6,7.7-.92,13.03-1.64,25.99-3.6,38.95-5.7-3.66-4.24-7.56-8.31-11.67-12.26ZM642.22,605.33c-6.01-3.58-11.87-7.32-17.57-11.27-1.91-1.31-3.79-2.65-5.66-4.01,1.49,4.56,2.97,9.13,4.46,13.7h0c1.76,5.42,3.51,10.82,5.27,16.23,1.25-.63,2.49-1.26,3.74-1.89,1.95-.99,3.9-1.98,5.84-2.98,1.15-.59,2.29-1.18,3.43-1.78,1.49-.78,3.58-2.37,3.55-3.54-.05-1.54-1.57-3.57-3.06-4.46ZM826.27,902.47c-10.37-2.54-21.52-1.94-32.33-2.53-3.87-.21-7.17,1.22-9.48,4.76-3.68,5.63-7.8,11.02-11.58,16.58,24.84-1.76,49.08-5.8,72.73-12.1-5.99-2.77-12.43-5.01-19.34-6.71ZM864.9,501.23c-25.82-24.85-55.04-44.45-88.57-57.31-4.68-1.8-9.74-2.96-14.73-3.56-21.02-2.52-28.35,13.01-29.23,26.61-.94,14.43,3.5,27.98,9.95,40.49,2.89,5.6,5.84,11.16,8.83,16.7,10.37.25,20.77.09,31.19-.33,2.34-.1,4.69-.21,7.03-.33,2.15-.11,4.3-.22,6.45-.35,11.42-.67,22.78-1.72,34.1-3.04,2.57-.29,5.14-.6,7.7-.92,13.03-1.64,25.99-3.6,38.95-5.7-3.66-4.24-7.56-8.31-11.67-12.26ZM642.22,605.33c-6.01-3.58-11.87-7.32-17.57-11.27-1.91-1.31-3.79-2.65-5.66-4.01,1.49,4.56,2.97,9.13,4.46,13.7h0c1.76,5.42,3.51,10.82,5.27,16.23,1.25-.63,2.49-1.26,3.74-1.89,1.95-.99,3.9-1.98,5.84-2.98,1.15-.59,2.29-1.18,3.43-1.78,1.49-.78,3.58-2.37,3.55-3.54-.05-1.54-1.57-3.57-3.06-4.46ZM642.22,605.33c-6.01-3.58-11.87-7.32-17.57-11.27-1.91-1.31-3.79-2.65-5.66-4.01,1.49,4.56,2.97,9.13,4.46,13.7h0c1.76,5.42,3.51,10.82,5.27,16.23,1.25-.63,2.49-1.26,3.74-1.89,1.95-.99,3.9-1.98,5.84-2.98,1.15-.59,2.29-1.18,3.43-1.78,1.49-.78,3.58-2.37,3.55-3.54-.05-1.54-1.57-3.57-3.06-4.46ZM826.27,902.47c-10.37-2.54-21.52-1.94-32.33-2.53-3.87-.21-7.17,1.22-9.48,4.76-3.68,5.63-7.8,11.02-11.58,16.58,24.84-1.76,49.08-5.8,72.73-12.1-5.99-2.77-12.43-5.01-19.34-6.71ZM864.9,501.23c-25.82-24.85-55.04-44.45-88.57-57.31-4.68-1.8-9.74-2.96-14.73-3.56-21.02-2.52-28.35,13.01-29.23,26.61-.94,14.43,3.5,27.98,9.95,40.49,2.89,5.6,5.84,11.16,8.83,16.7,10.37.25,20.77.09,31.19-.33,2.34-.1,4.69-.21,7.03-.33,2.15-.11,4.3-.22,6.45-.35,11.42-.67,22.78-1.72,34.1-3.04,2.57-.29,5.14-.6,7.7-.92,13.03-1.64,25.99-3.6,38.95-5.7-3.66-4.24-7.56-8.31-11.67-12.26ZM642.22,605.33c-6.01-3.58-11.87-7.32-17.57-11.27-1.91-1.31-3.79-2.65-5.66-4.01,1.49,4.56,2.97,9.13,4.46,13.7h0c1.76,5.42,3.51,10.82,5.27,16.23,1.25-.63,2.49-1.26,3.74-1.89,1.95-.99,3.9-1.98,5.84-2.98,1.15-.59,2.29-1.18,3.43-1.78,1.49-.78,3.58-2.37,3.55-3.54-.05-1.54-1.57-3.57-3.06-4.46ZM642.22,605.33c-6.01-3.58-11.87-7.32-17.57-11.27-1.91-1.31-3.79-2.65-5.66-4.01,1.49,4.56,2.97,9.13,4.46,13.7h0c1.76,5.42,3.51,10.82,5.27,16.23,1.25-.63,2.49-1.26,3.74-1.89,1.95-.99,3.9-1.98,5.84-2.98,1.15-.59,2.29-1.18,3.43-1.78,1.49-.78,3.58-2.37,3.55-3.54-.05-1.54-1.57-3.57-3.06-4.46ZM826.27,902.47c-10.37-2.54-21.52-1.94-32.33-2.53-3.87-.21-7.17,1.22-9.48,4.76-3.68,5.63-7.8,11.02-11.58,16.58,24.84-1.76,49.08-5.8,72.73-12.1-5.99-2.77-12.43-5.01-19.34-6.71ZM864.9,501.23c-25.82-24.85-55.04-44.45-88.57-57.31-4.68-1.8-9.74-2.96-14.73-3.56-21.02-2.52-28.35,13.01-29.23,26.61-.94,14.43,3.5,27.98,9.95,40.49,2.89,5.6,5.84,11.16,8.83,16.7,10.37.25,20.77.09,31.19-.33,2.34-.1,4.69-.21,7.03-.33,2.15-.11,4.3-.22,6.45-.35,11.42-.67,22.78-1.72,34.1-3.04,2.57-.29,5.14-.6,7.7-.92,13.03-1.64,25.99-3.6,38.95-5.7-3.66-4.24-7.56-8.31-11.67-12.26ZM642.22,605.33c-6.01-3.58-11.87-7.32-17.57-11.27-1.91-1.31-3.79-2.65-5.66-4.01,1.49,4.56,2.97,9.13,4.46,13.7h0c1.76,5.42,3.51,10.82,5.27,16.23,1.25-.63,2.49-1.26,3.74-1.89,1.95-.99,3.9-1.98,5.84-2.98,1.15-.59,2.29-1.18,3.43-1.78,1.49-.78,3.58-2.37,3.55-3.54-.05-1.54-1.57-3.57-3.06-4.46ZM382.91,281.72c-.65-2.21-1.3-4.42-1.94-6.62-2.53-8.6-5.05-17.2-7.58-25.79l-2.25-7.68h0c-5.66-19.29-11.32-38.57-16.99-57.86-.52-1.76-.66-3.72-3.54-3.66-2.85.06-2.89,1.93-3.41,3.75-4.28,14.73-8.56,29.45-12.83,44.18-.63,2.17-1.26,4.33-1.89,6.5-2.58,8.88-5.16,17.77-7.74,26.65-.66,2.25-1.31,4.51-1.97,6.76-9.02,31.07-18.05,62.14-27.07,93.21,25.19-10.73,51.46-17.03,79.21-15.33,9.65.59,19.44,2.94,28.63,6.1-6.87-23.41-13.75-46.81-20.62-70.21ZM642.22,605.33c-6.01-3.58-11.87-7.32-17.57-11.27-1.91-1.31-3.79-2.65-5.66-4.01,1.49,4.56,2.97,9.13,4.46,13.7h0c1.76,5.42,3.51,10.82,5.27,16.23,1.25-.63,2.49-1.26,3.74-1.89,1.95-.99,3.9-1.98,5.84-2.98,1.15-.59,2.29-1.18,3.43-1.78,1.49-.78,3.58-2.37,3.55-3.54-.05-1.54-1.57-3.57-3.06-4.46ZM826.27,902.47c-10.37-2.54-21.52-1.94-32.33-2.53-3.87-.21-7.17,1.22-9.48,4.76-3.68,5.63-7.8,11.02-11.58,16.58,24.84-1.76,49.08-5.8,72.73-12.1-5.99-2.77-12.43-5.01-19.34-6.71ZM864.9,501.23c-25.82-24.85-55.04-44.45-88.57-57.31-4.68-1.8-9.74-2.96-14.73-3.56-21.02-2.52-28.35,13.01-29.23,26.61-.94,14.43,3.5,27.98,9.95,40.49,2.89,5.6,5.84,11.16,8.83,16.7,10.37.25,20.77.09,31.19-.33,2.34-.1,4.69-.21,7.03-.33,2.15-.11,4.3-.22,6.45-.35,11.42-.67,22.78-1.72,34.1-3.04,2.57-.29,5.14-.6,7.7-.92,13.03-1.64,25.99-3.6,38.95-5.7-3.66-4.24-7.56-8.31-11.67-12.26ZM642.22,605.33c-6.01-3.58-11.87-7.32-17.57-11.27-1.91-1.31-3.79-2.65-5.66-4.01,1.49,4.56,2.97,9.13,4.46,13.7h0c1.76,5.42,3.51,10.82,5.27,16.23,1.25-.63,2.49-1.26,3.74-1.89,1.95-.99,3.9-1.98,5.84-2.98,1.15-.59,2.29-1.18,3.43-1.78,1.49-.78,3.58-2.37,3.55-3.54-.05-1.54-1.57-3.57-3.06-4.46ZM382.91,281.72c-.65-2.21-1.3-4.42-1.94-6.62-2.53-8.6-5.05-17.2-7.58-25.79l-2.25-7.68h0c-5.66-19.29-11.32-38.57-16.99-57.86-.52-1.76-.66-3.72-3.54-3.66-2.85.06-2.89,1.93-3.41,3.75-4.28,14.73-8.56,29.45-12.83,44.18-.63,2.17-1.26,4.33-1.89,6.5-2.58,8.88-5.16,17.77-7.74,26.65-.66,2.25-1.31,4.51-1.97,6.76-9.02,31.07-18.05,62.14-27.07,93.21,25.19-10.73,51.46-17.03,79.21-15.33,9.65.59,19.44,2.94,28.63,6.1-6.87-23.41-13.75-46.81-20.62-70.21ZM642.22,605.33c-6.01-3.58-11.87-7.32-17.57-11.27-1.91-1.31-3.79-2.65-5.66-4.01,1.49,4.56,2.97,9.13,4.46,13.7h0c1.76,5.42,3.51,10.82,5.27,16.23,1.25-.63,2.49-1.26,3.74-1.89,1.95-.99,3.9-1.98,5.84-2.98,1.15-.59,2.29-1.18,3.43-1.78,1.49-.78,3.58-2.37,3.55-3.54-.05-1.54-1.57-3.57-3.06-4.46ZM826.27,902.47c-10.37-2.54-21.52-1.94-32.33-2.53-3.87-.21-7.17,1.22-9.48,4.76-3.68,5.63-7.8,11.02-11.58,16.58,24.84-1.76,49.08-5.8,72.73-12.1-5.99-2.77-12.43-5.01-19.34-6.71ZM864.9,501.23c-25.82-24.85-55.04-44.45-88.57-57.31-4.68-1.8-9.74-2.96-14.73-3.56-21.02-2.52-28.35,13.01-29.23,26.61-.94,14.43,3.5,27.98,9.95,40.49,2.89,5.6,5.84,11.16,8.83,16.7,10.37.25,20.77.09,31.19-.33,2.34-.1,4.69-.21,7.03-.33,2.15-.11,4.3-.22,6.45-.35,11.42-.67,22.78-1.72,34.1-3.04,2.57-.29,5.14-.6,7.7-.92,13.03-1.64,25.99-3.6,38.95-5.7-3.66-4.24-7.56-8.31-11.67-12.26ZM642.22,605.33c-6.01-3.58-11.87-7.32-17.57-11.27-1.91-1.31-3.79-2.65-5.66-4.01,1.49,4.56,2.97,9.13,4.46,13.7h0c1.76,5.42,3.51,10.82,5.27,16.23,1.25-.63,2.49-1.26,3.74-1.89,1.95-.99,3.9-1.98,5.84-2.98,1.15-.59,2.29-1.18,3.43-1.78,1.49-.78,3.58-2.37,3.55-3.54-.05-1.54-1.57-3.57-3.06-4.46ZM382.91,281.72c-.65-2.21-1.3-4.42-1.94-6.62-2.53-8.6-5.05-17.2-7.58-25.79l-2.25-7.68h0c-5.66-19.29-11.32-38.57-16.99-57.86-.52-1.76-.66-3.72-3.54-3.66-2.85.06-2.89,1.93-3.41,3.75-4.28,14.73-8.56,29.45-12.83,44.18-.63,2.17-1.26,4.33-1.89,6.5-2.58,8.88-5.16,17.77-7.74,26.65-.66,2.25-1.31,4.51-1.97,6.76-9.02,31.07-18.05,62.14-27.07,93.21,25.19-10.73,51.46-17.03,79.21-15.33,9.65.59,19.44,2.94,28.63,6.1-6.87-23.41-13.75-46.81-20.62-70.21ZM642.22,605.33c-6.01-3.58-11.87-7.32-17.57-11.27-1.91-1.31-3.79-2.65-5.66-4.01,1.49,4.56,2.97,9.13,4.46,13.7h0c1.76,5.42,3.51,10.82,5.27,16.23,1.25-.63,2.49-1.26,3.74-1.89,1.95-.99,3.9-1.98,5.84-2.98,1.15-.59,2.29-1.18,3.43-1.78,1.49-.78,3.58-2.37,3.55-3.54-.05-1.54-1.57-3.57-3.06-4.46ZM826.27,902.47c-10.37-2.54-21.52-1.94-32.33-2.53-3.87-.21-7.17,1.22-9.48,4.76-3.68,5.63-7.8,11.02-11.58,16.58,24.84-1.76,49.08-5.8,72.73-12.1-5.99-2.77-12.43-5.01-19.34-6.71ZM864.9,501.23c-25.82-24.85-55.04-44.45-88.57-57.31-4.68-1.8-9.74-2.96-14.73-3.56-21.02-2.52-28.35,13.01-29.23,26.61-.94,14.43,3.5,27.98,9.95,40.49,2.89,5.6,5.84,11.16,8.83,16.7,10.37.25,20.77.09,31.19-.33,2.34-.1,4.69-.21,7.03-.33,2.15-.11,4.3-.22,6.45-.35,11.42-.67,22.78-1.72,34.1-3.04,2.57-.29,5.14-.6,7.7-.92,13.03-1.64,25.99-3.6,38.95-5.7-3.66-4.24-7.56-8.31-11.67-12.26ZM642.22,605.33c-6.01-3.58-11.87-7.32-17.57-11.27-1.91-1.31-3.79-2.65-5.66-4.01,1.49,4.56,2.97,9.13,4.46,13.7h0c1.76,5.42,3.51,10.82,5.27,16.23,1.25-.63,2.49-1.26,3.74-1.89,1.95-.99,3.9-1.98,5.84-2.98,1.15-.59,2.29-1.18,3.43-1.78,1.49-.78,3.58-2.37,3.55-3.54-.05-1.54-1.57-3.57-3.06-4.46ZM382.91,281.72c-.65-2.21-1.3-4.42-1.94-6.62-2.53-8.6-5.05-17.2-7.58-25.79l-2.25-7.68h0c-5.66-19.29-11.32-38.57-16.99-57.86-.52-1.76-.66-3.72-3.54-3.66-2.85.06-2.89,1.93-3.41,3.75-4.28,14.73-8.56,29.45-12.83,44.18-.63,2.17-1.26,4.33-1.89,6.5-2.58,8.88-5.16,17.77-7.74,26.65-.66,2.25-1.31,4.51-1.97,6.76-9.02,31.07-18.05,62.14-27.07,93.21,25.19-10.73,51.46-17.03,79.21-15.33,9.65.59,19.44,2.94,28.63,6.1-6.87-23.41-13.75-46.81-20.62-70.21ZM642.22,605.33c-6.01-3.58-11.87-7.32-17.57-11.27-1.91-1.31-3.79-2.65-5.66-4.01,1.49,4.56,2.97,9.13,4.46,13.7h0c1.76,5.42,3.51,10.82,5.27,16.23,1.25-.63,2.49-1.26,3.74-1.89,1.95-.99,3.9-1.98,5.84-2.98,1.15-.59,2.29-1.18,3.43-1.78,1.49-.78,3.58-2.37,3.55-3.54-.05-1.54-1.57-3.57-3.06-4.46ZM826.27,902.47c-10.37-2.54-21.52-1.94-32.33-2.53-3.87-.21-7.17,1.22-9.48,4.76-3.68,5.63-7.8,11.02-11.58,16.58,24.84-1.76,49.08-5.8,72.73-12.1-5.99-2.77-12.43-5.01-19.34-6.71ZM864.9,501.23c-25.82-24.85-55.04-44.45-88.57-57.31-4.68-1.8-9.74-2.96-14.73-3.56-21.02-2.52-28.35,13.01-29.23,26.61-.94,14.43,3.5,27.98,9.95,40.49,2.89,5.6,5.84,11.16,8.83,16.7,10.37.25,20.77.09,31.19-.33,2.34-.1,4.69-.21,7.03-.33,2.15-.11,4.3-.22,6.45-.35,11.42-.67,22.78-1.72,34.1-3.04,2.57-.29,5.14-.6,7.7-.92,13.03-1.64,25.99-3.6,38.95-5.7-3.66-4.24-7.56-8.31-11.67-12.26ZM642.22,605.33c-6.01-3.58-11.87-7.32-17.57-11.27-1.91-1.31-3.79-2.65-5.66-4.01,1.49,4.56,2.97,9.13,4.46,13.7h0c1.76,5.42,3.51,10.82,5.27,16.23,1.25-.63,2.49-1.26,3.74-1.89,1.95-.99,3.9-1.98,5.84-2.98,1.15-.59,2.29-1.18,3.43-1.78,1.49-.78,3.58-2.37,3.55-3.54-.05-1.54-1.57-3.57-3.06-4.46ZM382.91,281.72c-.65-2.21-1.3-4.42-1.94-6.62-2.53-8.6-5.05-17.2-7.58-25.79l-2.25-7.68h0c-5.66-19.29-11.32-38.57-16.99-57.86-.52-1.76-.66-3.72-3.54-3.66-2.85.06-2.89,1.93-3.41,3.75-4.28,14.73-8.56,29.45-12.83,44.18-.63,2.17-1.26,4.33-1.89,6.5-2.58,8.88-5.16,17.77-7.74,26.65-.66,2.25-1.31,4.51-1.97,6.76-9.02,31.07-18.05,62.14-27.07,93.21,25.19-10.73,51.46-17.03,79.21-15.33,9.65.59,19.44,2.94,28.63,6.1-6.87-23.41-13.75-46.81-20.62-70.21ZM642.22,605.33c-6.01-3.58-11.87-7.32-17.57-11.27-1.91-1.31-3.79-2.65-5.66-4.01,1.49,4.56,2.97,9.13,4.46,13.7h0c1.76,5.42,3.51,10.82,5.27,16.23,1.25-.63,2.49-1.26,3.74-1.89,1.95-.99,3.9-1.98,5.84-2.98,1.15-.59,2.29-1.18,3.43-1.78,1.49-.78,3.58-2.37,3.55-3.54-.05-1.54-1.57-3.57-3.06-4.46ZM1022.38,968.74c-.37-1.84-.75-3.72-1.22-5.58-5.12,3.86-10.31,7.56-15.56,11.13,3.56,1.04,7.38,1.23,11.31.76,4.02-.48,6.23-2.58,5.47-6.31ZM826.27,902.47c-10.37-2.54-21.52-1.94-32.33-2.53-3.87-.21-7.17,1.22-9.48,4.76-3.68,5.63-7.8,11.02-11.58,16.58,24.84-1.76,49.08-5.8,72.73-12.1-5.99-2.77-12.43-5.01-19.34-6.71ZM906.15,629.42c-26.17,4.09-52.35,8.11-78.41,12.78.57,11.94,1.4,23.88,2.66,35.76.82,7.68,7.58,12.45,14.93,10.13,13.97-4.41,28.03-8.98,41.25-15.19,14.98-7.03,20.08-20.67,19.49-41.47.05-.67.07-1.34.08-2.01ZM886.15,887.29c-14.86-2.35-29.82-4.27-44.57-7.24-15.53-3.13-31.23-6.21-46.19-11.27-18.38-6.21-24.41-15.89-23.26-35.14.55-9.16,3.12-18.29,5.63-27.19,2.15-7.62,5.34-14.96,8.4-22.29,6.41-15.38,8.87-31.6,9.97-48,1.36-20.29,2.98-40.64,2.7-60.95-.12-9.05-.85-18.11-1.89-27.15-10.76,2.18-21.49,4.52-32.18,7.08-.6.13-1.19.28-1.79.42-1.62.39-3.24.78-4.85,1.19,4.61,29.94,4.86,60.22,1.78,90.72-3.43,33.98-10.59,67.11-21.16,99.58-8.38,25.75-19.89,49.85-33.16,73.11,2.45.26,4.91.49,7.37.69,17.27,1.47,34.61,1.8,51.94.92h.01c2.27-.11,4.52-.25,6.79-.4.4-.03.79-.05,1.19-.09,3.78-5.56,7.9-10.95,11.58-16.58,2.31-3.54,5.61-4.97,9.48-4.76,10.81.59,21.96,0,32.33,2.53,6.91,1.7,13.35,3.94,19.34,6.71h.01c3.17-.84,6.32-1.72,9.46-2.64,13.32-3.92,26.44-8.56,39.35-13.93-2.04-2.88-4.54-4.73-8.28-5.32ZM864.9,501.23c-25.82-24.85-55.04-44.45-88.57-57.31-4.68-1.8-9.74-2.96-14.73-3.56-21.02-2.52-28.35,13.01-29.23,26.61-.94,14.43,3.5,27.98,9.95,40.49,2.89,5.6,5.84,11.16,8.83,16.7,10.37.25,20.77.09,31.19-.33,2.34-.1,4.69-.21,7.03-.33,2.15-.11,4.3-.22,6.45-.35,11.42-.67,22.78-1.72,34.1-3.04,2.57-.29,5.14-.6,7.7-.92,13.03-1.64,25.99-3.6,38.95-5.7-3.66-4.24-7.56-8.31-11.67-12.26ZM642.22,605.33c-6.01-3.58-11.87-7.32-17.57-11.27-1.91-1.31-3.79-2.65-5.66-4.01,1.49,4.56,2.97,9.13,4.46,13.7h0c1.76,5.42,3.51,10.82,5.27,16.23,1.25-.63,2.49-1.26,3.74-1.89,1.95-.99,3.9-1.98,5.84-2.98,1.15-.59,2.29-1.18,3.43-1.78,1.49-.78,3.58-2.37,3.55-3.54-.05-1.54-1.57-3.57-3.06-4.46ZM382.91,281.72c-.65-2.21-1.3-4.42-1.94-6.62-2.53-8.6-5.05-17.2-7.58-25.79l-2.25-7.68h0c-5.66-19.29-11.32-38.57-16.99-57.86-.52-1.76-.66-3.72-3.54-3.66-2.85.06-2.89,1.93-3.41,3.75-4.28,14.73-8.56,29.45-12.83,44.18-.63,2.17-1.26,4.33-1.89,6.5-2.58,8.88-5.16,17.77-7.74,26.65-.66,2.25-1.31,4.51-1.97,6.76-9.02,31.07-18.05,62.14-27.07,93.21,25.19-10.73,51.46-17.03,79.21-15.33,9.65.59,19.44,2.94,28.63,6.1-6.87-23.41-13.75-46.81-20.62-70.21ZM642.22,605.33c-6.01-3.58-11.87-7.32-17.57-11.27-1.91-1.31-3.79-2.65-5.66-4.01,1.49,4.56,2.97,9.13,4.46,13.7h0c1.76,5.42,3.51,10.82,5.27,16.23,1.25-.63,2.49-1.26,3.74-1.89,1.95-.99,3.9-1.98,5.84-2.98,1.15-.59,2.29-1.18,3.43-1.78,1.49-.78,3.58-2.37,3.55-3.54-.05-1.54-1.57-3.57-3.06-4.46ZM1022.38,968.74c-.37-1.84-.75-3.72-1.22-5.58-5.12,3.86-10.31,7.56-15.56,11.13,3.56,1.04,7.38,1.23,11.31.76,4.02-.48,6.23-2.58,5.47-6.31ZM793.94,899.94c-3.87-.21-7.17,1.22-9.48,4.76-3.68,5.63-7.8,11.02-11.58,16.58,24.84-1.76,49.08-5.8,72.73-12.1-5.99-2.77-12.43-5.01-19.34-6.71-10.37-2.54-21.52-1.94-32.33-2.53ZM864.9,501.23c-25.82-24.85-55.04-44.45-88.57-57.31-4.68-1.8-9.74-2.96-14.73-3.56-21.02-2.52-28.35,13.01-29.23,26.61-.94,14.43,3.5,27.98,9.95,40.49,2.89,5.6,5.84,11.16,8.83,16.7,10.37.25,20.77.09,31.19-.33,2.34-.1,4.69-.21,7.03-.33,2.15-.11,4.3-.22,6.45-.35,11.42-.67,22.78-1.72,34.1-3.04,2.57-.29,5.14-.6,7.7-.92,13.03-1.64,25.99-3.6,38.95-5.7-3.66-4.24-7.56-8.31-11.67-12.26ZM642.22,605.33c-6.01-3.58-11.87-7.32-17.57-11.27-1.91-1.31-3.79-2.65-5.66-4.01,1.49,4.56,2.97,9.13,4.46,13.7h0c1.76,5.42,3.51,10.82,5.27,16.23,1.25-.63,2.49-1.26,3.74-1.89,1.95-.99,3.9-1.98,5.84-2.98,1.15-.59,2.29-1.18,3.43-1.78,1.49-.78,3.58-2.37,3.55-3.54-.05-1.54-1.57-3.57-3.06-4.46ZM380.97,275.1c-2.53-8.6-5.05-17.2-7.58-25.79l-2.25-7.68h0c-5.66-19.29-11.32-38.57-16.99-57.86-.52-1.76-.66-3.72-3.54-3.66-2.85.06-2.89,1.93-3.41,3.75-4.28,14.73-8.56,29.45-12.83,44.18-.63,2.17-1.26,4.33-1.89,6.5-2.58,8.88-5.16,17.77-7.74,26.65-.66,2.25-1.31,4.51-1.97,6.76-9.02,31.07-18.05,62.14-27.07,93.21,25.19-10.73,51.46-17.03,79.21-15.33,9.65.59,19.44,2.94,28.63,6.1-6.87-23.41-13.75-46.81-20.62-70.21-.65-2.21-1.3-4.42-1.94-6.62ZM1046.71,4.04c-2.31-.75-4.67-1.39-7.07-1.91-5.32-1.17-10.85-1.79-16.52-1.79H76.64c-13.77,0-26.7,3.63-37.88,9.98-1.96,1.11-3.86,2.31-5.71,3.59-2.01,1.39-3.95,2.87-5.81,4.45-1.89,1.58-3.69,3.25-5.4,5.01C8.25,37.22-.12,56.18-.12,77.1v946.47c0,31.2,18.61,58.04,45.32,70.06,2.39,1.07,4.85,2.03,7.36,2.85,7.57,2.51,15.67,3.86,24.08,3.86h946.48c12.49,0,24.29-2.98,34.72-8.28h.01c3.41-1.74,6.64-3.73,9.74-5.95.01.01.02.01.02,0,.01.01.02.01.02,0,.01.01.02.01.02,0,19.51-13.92,32.23-36.74,32.23-62.54V77.1c0-34.16-22.32-63.11-53.17-73.06ZM869.89,274.76c20,13.07,36.44,29.38,50.39,47.85,1.58,2.08,3.12,4.18,4.63,6.32,3.15,4.44,6.17,9,9.07,13.66.4.65.69,1.36,1.17,2.33-22.74,19.43-45.45,38.83-68.12,58.19-1.72,1.48-3.45,2.96-5.18,4.42-7.1,6.08-14.2,12.15-21.3,18.21-5.26-6.7-10.02-13.38-15.43-19.53-7.04-7.99-14.81-14.71-23.32-20.15-2.05-1.33-4.14-2.57-6.27-3.72-10.03-5.49-20.99-9.35-32.88-11.57-2.24-.42-4.51-.79-6.82-1.09-.52-.07-1.04-.14-1.56-.19,6.66-6.79,12.7-14.27,17.92-22.68,16.1-25.99,21.65-54.34,19.5-84.62-.48-6.73-1.35-13.33-2.55-19.81,2.32.4,4.63.85,6.93,1.34,15.72,3.3,31.14,8.46,46.24,15.58,2.4,1.13,4.8,2.32,7.19,3.56,6.87,3.54,13.67,7.51,20.39,11.9ZM571.12,333.91c4.08.71,8.19,1.34,12.31,1.87,33.87,4.39,63.59-3.76,86.64-30.46,10.91-12.64,16.99-27.6,20.16-43.76.99-5.03,1.78-10.05,2.35-15.06h.01c2.33-.56,4.65-1.09,6.97-1.58-1.25,13.08-4.12,25.96-9.05,38.55-14.12,36.13-48.76,59.73-87.57,60.14-12.1.13-23.97-1.11-35.67-3.28,1.23-2.15,2.52-4.29,3.85-6.42ZM96.56,565.62c.64-1.94,1.28-3.88,1.92-5.82,37.98-115.28,75.97-230.56,113.96-345.84,1.55-4.72,3.1-9.43,4.66-14.15,8.77-26.63,17.55-53.27,26.33-79.9.7-2.14,1.41-4.27,2.11-6.41,3.72-11.28,7.44-22.57,11.16-33.85.67-2.06,1.35-4.13,2.04-6.19,1.22.42,2.43.88,3.63,1.37,12.99,5.29,25.79,11.07,38.55,16.91,14.78,6.76,29.53,13.48,45.61,16.67,22.18,4.41,43.5.14,64.47-6.59,15.21-4.88,29.67-11.39,42.02-21.96.01-.01.03-.02.04-.03.75,2.32,1.5,4.63,2.25,6.95,6.65,20.47,13.3,40.94,19.96,61.4.69,2.15,1.39,4.29,2.09,6.43h0c11.96,36.82,23.93,73.62,35.9,110.43.7,2.16,1.4,4.32,2.11,6.48,5.79,17.82,11.58,35.63,17.38,53.45.79,2.43,1.58,4.85,2.37,7.28,4.99,15.34,9.98,30.69,14.98,46.03.26.82.52,1.63.79,2.44,5.14,1.98,10.24,4.1,15.33,6.35,22.48,9.92,45.19,19.27,69.12,25.53-.89,1.98-1.68,4.03-2.36,6.17-.47-.11-.94-.22-1.41-.34-26.41-6.48-50.89-18.18-75.89-28.49-.69-.28-1.37-.56-2.06-.85,7.94,24.42,15.88,48.84,23.83,73.25,8.77,3.79,17.6,7.42,26.5,10.85,11.02,4.25,22.67,6.85,34.25,9.62,1.8,2.78,3.86,5.49,6.22,8.12,1.97,2.21,4.15,4.37,6.54,6.47,11.04,9.71,24.29,15.39,38.37,19.09,3.88,1.01,7.83,1.88,11.8,2.64.29.05.57.11.86.16,13.49,2.53,27.03,3.94,40.61,4.57,2.85.14,5.7.24,8.55.3,10.37.25,20.77.09,31.19-.33,2.34-.1,4.69-.21,7.03-.33,2.15-.11,4.3-.22,6.45-.35,11.42-.67,22.78-1.72,34.1-3.04,2.57-.29,5.14-.6,7.7-.92,13.03-1.64,25.99-3.6,38.95-5.7h0c2.6-.41,5.2-.84,7.79-1.27,5.78-.95,11.55-1.93,17.33-2.91h.01c2.45-.42,4.88-.84,7.33-1.26,3.16-.54,6.32-1.07,9.48-1.61,9.69-1.65,19.4-3.2,30.04-4.95,2.51,14.3,5.01,28.6,7.52,42.93.45,2.53.89,5.06,1.33,7.6,3.64,20.78,7.3,41.63,10.98,62.64.26,1.51.53,3.02.79,4.53-3.1.52-6.14,1.02-9.14,1.52h-.01c-4.2.7-8.31,1.39-12.44,2.08-11.78,1.96-23.59,3.83-35.39,5.68-2.02.32-4.03.63-6.05.95-26.17,4.09-52.35,8.11-78.41,12.78-2.07.36-4.14.74-6.21,1.12-5.87,1.07-11.73,2.18-17.59,3.34-2.33.45-4.67.92-7,1.4-10.76,2.18-21.49,4.52-32.18,7.08-.6.13-1.19.28-1.79.42-1.62.39-3.24.78-4.85,1.19-30.4,7.48-60.25,16.46-88.48,29.42-2.04.92-4.07,1.88-6.1,2.86-3.57,1.72-7.11,3.51-10.62,5.38-3.52,1.87-7.02,3.82-10.49,5.84-4.16,2.43-8.21,4.97-12.13,7.64-38.4-.01-76.8-.03-115.21.08h-2.2c-3.51,0-4.76-1.14-5.74-4.41-4.68-15.64-9.38-31.28-14.09-46.91-.63-2.12-1.27-4.23-1.91-6.35-8.41-27.91-16.84-55.81-25.21-83.73-.64-2.11-1.28-4.22-1.91-6.34-.52-1.73-1.04-3.47-1.56-5.2-.82-2.75-1.9-3.63-4.74-3.62-13.61.02-27.23.03-40.84.04-3.21,0-6.42,0-9.63,0-30.99.01-61.99.01-92.98,0-2.22,0-4.44,0-6.67,0,1.33-4.03,2.94-8.01,4.81-11.96,7.91-16.63,14.15-34.04,21.97-50.72,9.14-19.5,21.08-37.1,38.6-50.33,4.49-3.39,9.18-6.26,14.05-8.63h39.1c-.21-.98-.37-1.89-.59-2.76-.05-.23-.11-.46-.17-.68-.55-1.88-1.1-3.76-1.65-5.64,40.72-2.72,79.07,6.48,115.86,24.24-.07-20.15,2.55-39.61,7.92-58.35-15.03-6.01-30.3-11.29-46.57-12.97-14.32-1.48-28.7-2.66-43.09-3.26-16.25-.68-32.05-3.64-47.08-9.49-1.72-.67-3.44-1.3-5.16-1.87-.69-2.37-1.39-4.74-2.08-7.1-6.87-23.41-13.75-46.81-20.62-70.21-.65-2.21-1.3-4.42-1.94-6.62-2.53-8.6-5.05-17.2-7.58-25.79l-2.25-7.68h0c-5.66-19.29-11.32-38.57-16.99-57.86-.52-1.76-.66-3.72-3.54-3.66-2.85.06-2.89,1.93-3.41,3.75-4.28,14.73-8.56,29.45-12.83,44.18-.63,2.17-1.26,4.33-1.89,6.5-2.58,8.88-5.16,17.77-7.74,26.65-.66,2.25-1.31,4.51-1.97,6.76-9.02,31.07-18.05,62.14-27.07,93.21-.79,2.71-1.58,5.42-2.36,8.13-37.85,16.91-59.01,47.32-66.78,87.86-4.65,24.27-2.5,48.63,2.06,72.79,2.3,12.14,5.36,24,9.07,35.62-1.11,3.71-2.22,7.42-3.34,11.12-11.56,38.48-23.19,76.93-34.78,115.4-.77,2.55-1.54,5.1-2.31,7.65-6.62-9.17-13.31-18.29-20.22-27.24-16.67-21.56-36.47-39.75-62.65-49.46-11.18-4.15-22.62-6.53-34.22-7.63.73-2.21,1.45-4.41,2.18-6.62,4.74-14.39,9.48-28.77,14.22-43.16ZM563.71,743.21c-4.15-4.56-9.48-8.23-14.72-11.6-16.03-10.3-32.35-10.6-48.48-1.75,1.9-3.31,3.91-6.58,6.03-9.81,0,0,0-.01.01-.01,17.3-5.91,34.19-2.84,50.75,8.93,11.25,8,20.06,18.01,27.3,29.24-1.23,2.52-2.35,5.08-3.35,7.65-5.08-7.86-10.94-15.41-17.54-22.65ZM61.22,672.89c23.91,4.48,46.6,13.15,67.81,26.45,4.54,2.84,9.14,5.67,13.7,8.56-4.04-.01-8.08-.01-12.12-.01h-.01c-10.31-6.13-21.06-11.69-32.16-16.82-12.6-5.82-25.8-9.55-39.31-11.83.69-2.12,1.39-4.23,2.09-6.35ZM485.2,897.82c12.11,7.18,19.71,18.04,25.21,30.72,4.96,11.43,7.56,22.77,7.97,34.03-2.79-3.51-5.44-7.13-7.96-10.84-1.95-11.1-6.21-22.01-12.75-32.7-2.65-4.35-5.73-8.07-9.21-11.14-1.16-3.3-2.25-6.65-3.26-10.07ZM875.59,1033.06c-2.2.61-4.42,1.19-6.64,1.76-1.83-4.68-3.97-9.27-6.5-13.77-8.66-15.37-20.7-19.67-37.27-13.79-3.81,1.35-7.69,2.83-11.05,5-13.05,8.46-26,17.05-38.77,25.91-4.64,3.22-8.04,7.31-10.56,11.89-2.3.08-4.6.14-6.89.18-13.19.26-26.42-.02-39.66-.81-8.9-.53-17.74-1.29-26.53-2.34-2.28-.26-4.55-.55-6.82-.86-13.61-1.84-27.06-4.38-40.3-7.77-2.16-.55-4.31-1.12-6.45-1.73-12.55-3.49-24.89-7.79-37-13.03-.81-.35-1.62-.7-2.43-1.06-1.21-.54-2.41-1.08-3.6-1.63-12.03-5.56-23.17-11.79-33.41-18.7-1.87-1.26-3.71-2.54-5.52-3.85,12.59-24.99,24.34-50.38,33.91-76.8,4.6-12.72,8.98-25.55,11.96-38.67,1.75,1.62,3.58,3.17,5.48,4.65,4.95,3.9,10.38,7.41,16.26,10.56,11.45,6.14,23.48,10.65,35.89,13.98h.01c2.25.62,4.5,1.18,6.77,1.72,6.76,1.58,13.62,2.86,20.55,3.91,6.17.93,12.36,1.71,18.56,2.35,2.45.26,4.91.49,7.37.69,17.27,1.47,34.61,1.8,51.94.92h.01c2.27-.11,4.52-.25,6.79-.4.4-.03.79-.05,1.19-.09,24.84-1.76,49.08-5.8,72.73-12.1h.01c3.17-.84,6.32-1.72,9.46-2.64,13.32-3.92,26.44-8.56,39.35-13.93,2.09-.86,4.17-1.75,6.24-2.65,2.44-1.06,4.87-2.15,7.3-3.27,4.23-1.95,8.41-3.98,12.53-6.1,2.03-1.03,4.05-2.09,6.05-3.17,11.95-6.45,23.39-13.61,34.33-21.52,1.82-1.3,3.62-2.63,5.4-3.99,4.31-3.26,8.55-6.65,12.7-10.16,1.31-1.11,2.72-2.11,4.46-3.45,22.17,33.63,44.21,67.05,66.67,101.11-7.83,6.52-15.4,13.22-23.34,19.44h0c-.52.43-1.04.83-1.57,1.24-1.34,1.04-2.69,2.06-4.04,3.07-5.12,3.86-10.31,7.56-15.56,11.13-2.19,1.49-4.39,2.95-6.61,4.39-8.2,5.34-16.57,10.35-25.08,15.05-2.11,1.17-4.23,2.31-6.36,3.44-9.96,5.27-20.12,10.11-30.46,14.56-2.18.94-4.37,1.86-6.57,2.76-17.78,7.31-36.11,13.47-54.93,18.57ZM623.45,603.76c1.76,5.41,3.51,10.81,5.27,16.22,1.25-.63,2.49-1.26,3.74-1.89,1.95-.99,3.9-1.98,5.84-2.98,1.15-.59,2.29-1.18,3.43-1.78,1.49-.78,3.58-2.37,3.55-3.54-.05-1.54-1.57-3.57-3.06-4.46-6.01-3.58-11.87-7.32-17.57-11.27-1.91-1.31-3.79-2.65-5.66-4.01,1.49,4.56,2.97,9.13,4.46,13.7h0ZM382.91,281.72c-.65-2.21-1.3-4.42-1.94-6.62-2.53-8.6-5.05-17.2-7.58-25.79l-2.25-7.68h0c-5.66-19.29-11.32-38.57-16.99-57.86-.52-1.76-.66-3.72-3.54-3.66-2.85.06-2.89,1.93-3.41,3.75-4.28,14.73-8.56,29.45-12.83,44.18-.63,2.17-1.26,4.33-1.89,6.5-2.58,8.88-5.16,17.77-7.74,26.65-.66,2.25-1.31,4.51-1.97,6.76-9.02,31.07-18.05,62.14-27.07,93.21,25.19-10.73,51.46-17.03,79.21-15.33,9.65.59,19.44,2.94,28.63,6.1-6.87-23.41-13.75-46.81-20.62-70.21ZM642.22,605.33c-6.01-3.58-11.87-7.32-17.57-11.27-1.91-1.31-3.79-2.65-5.66-4.01,1.49,4.56,2.97,9.13,4.46,13.7h0c1.76,5.42,3.51,10.82,5.27,16.23,1.25-.63,2.49-1.26,3.74-1.89,1.95-.99,3.9-1.98,5.84-2.98,1.15-.59,2.29-1.18,3.43-1.78,1.49-.78,3.58-2.37,3.55-3.54-.05-1.54-1.57-3.57-3.06-4.46ZM864.9,501.23c-25.82-24.85-55.04-44.45-88.57-57.31-4.68-1.8-9.74-2.96-14.73-3.56-21.02-2.52-28.35,13.01-29.23,26.61-.94,14.43,3.5,27.98,9.95,40.49,2.89,5.6,5.84,11.16,8.83,16.7,10.37.25,20.77.09,31.19-.33,2.34-.1,4.69-.21,7.03-.33,2.15-.11,4.3-.22,6.45-.35,11.42-.67,22.78-1.72,34.1-3.04,2.57-.29,5.14-.6,7.7-.92,13.03-1.64,25.99-3.6,38.95-5.7-3.66-4.24-7.56-8.31-11.67-12.26ZM886.15,887.29c-14.86-2.35-29.82-4.27-44.57-7.24-15.53-3.13-31.23-6.21-46.19-11.27-18.38-6.21-24.41-15.89-23.26-35.14.55-9.16,3.12-18.29,5.63-27.19,2.15-7.62,5.34-14.96,8.4-22.29,6.41-15.38,8.87-31.6,9.97-48,1.36-20.29,2.98-40.64,2.7-60.95-.12-9.05-.85-18.11-1.89-27.15-10.76,2.18-21.49,4.52-32.18,7.08-.6.13-1.19.28-1.79.42-1.62.39-3.24.78-4.85,1.19,4.61,29.94,4.86,60.22,1.78,90.72-3.43,33.98-10.59,67.11-21.16,99.58-8.38,25.75-19.89,49.85-33.16,73.11,2.45.26,4.91.49,7.37.69,17.27,1.47,34.61,1.8,51.94.92h.01c2.27-.11,4.52-.25,6.79-.4.4-.03.79-.05,1.19-.09,3.78-5.56,7.9-10.95,11.58-16.58,2.31-3.54,5.61-4.97,9.48-4.76,10.81.59,21.96,0,32.33,2.53,6.91,1.7,13.35,3.94,19.34,6.71h.01c3.17-.84,6.32-1.72,9.46-2.64,13.32-3.92,26.44-8.56,39.35-13.93-2.04-2.88-4.54-4.73-8.28-5.32ZM906.15,629.42c-26.17,4.09-52.35,8.11-78.41,12.78.57,11.94,1.4,23.88,2.66,35.76.82,7.68,7.58,12.45,14.93,10.13,13.97-4.41,28.03-8.98,41.25-15.19,14.98-7.03,20.08-20.67,19.49-41.47.05-.67.07-1.34.08-2.01ZM826.27,902.47c-10.37-2.54-21.52-1.94-32.33-2.53-3.87-.21-7.17,1.22-9.48,4.76-3.68,5.63-7.8,11.02-11.58,16.58,24.84-1.76,49.08-5.8,72.73-12.1-5.99-2.77-12.43-5.01-19.34-6.71ZM1022.38,968.74c-.37-1.84-.75-3.72-1.22-5.58-5.12,3.86-10.31,7.56-15.56,11.13,3.56,1.04,7.38,1.23,11.31.76,4.02-.48,6.23-2.58,5.47-6.31ZM642.22,605.33c-6.01-3.58-11.87-7.32-17.57-11.27-1.91-1.31-3.79-2.65-5.66-4.01,1.49,4.56,2.97,9.13,4.46,13.7h0c1.76,5.42,3.51,10.82,5.27,16.23,1.25-.63,2.49-1.26,3.74-1.89,1.95-.99,3.9-1.98,5.84-2.98,1.15-.59,2.29-1.18,3.43-1.78,1.49-.78,3.58-2.37,3.55-3.54-.05-1.54-1.57-3.57-3.06-4.46ZM382.91,281.72c-.65-2.21-1.3-4.42-1.94-6.62-2.53-8.6-5.05-17.2-7.58-25.79l-2.25-7.68h0c-5.66-19.29-11.32-38.57-16.99-57.86-.52-1.76-.66-3.72-3.54-3.66-2.85.06-2.89,1.93-3.41,3.75-4.28,14.73-8.56,29.45-12.83,44.18-.63,2.17-1.26,4.33-1.89,6.5-2.58,8.88-5.16,17.77-7.74,26.65-.66,2.25-1.31,4.51-1.97,6.76-9.02,31.07-18.05,62.14-27.07,93.21,25.19-10.73,51.46-17.03,79.21-15.33,9.65.59,19.44,2.94,28.63,6.1-6.87-23.41-13.75-46.81-20.62-70.21ZM642.22,605.33c-6.01-3.58-11.87-7.32-17.57-11.27-1.91-1.31-3.79-2.65-5.66-4.01,1.49,4.56,2.97,9.13,4.46,13.7h0c1.76,5.42,3.51,10.82,5.27,16.23,1.25-.63,2.49-1.26,3.74-1.89,1.95-.99,3.9-1.98,5.84-2.98,1.15-.59,2.29-1.18,3.43-1.78,1.49-.78,3.58-2.37,3.55-3.54-.05-1.54-1.57-3.57-3.06-4.46ZM864.9,501.23c-25.82-24.85-55.04-44.45-88.57-57.31-4.68-1.8-9.74-2.96-14.73-3.56-21.02-2.52-28.35,13.01-29.23,26.61-.94,14.43,3.5,27.98,9.95,40.49,2.89,5.6,5.84,11.16,8.83,16.7,10.37.25,20.77.09,31.19-.33,2.34-.1,4.69-.21,7.03-.33,2.15-.11,4.3-.22,6.45-.35,11.42-.67,22.78-1.72,34.1-3.04,2.57-.29,5.14-.6,7.7-.92,13.03-1.64,25.99-3.6,38.95-5.7-3.66-4.24-7.56-8.31-11.67-12.26ZM826.27,902.47c-10.37-2.54-21.52-1.94-32.33-2.53-3.87-.21-7.17,1.22-9.48,4.76-3.68,5.63-7.8,11.02-11.58,16.58,24.84-1.76,49.08-5.8,72.73-12.1-5.99-2.77-12.43-5.01-19.34-6.71ZM642.22,605.33c-6.01-3.58-11.87-7.32-17.57-11.27-1.91-1.31-3.79-2.65-5.66-4.01,1.49,4.56,2.97,9.13,4.46,13.7h0c1.76,5.42,3.51,10.82,5.27,16.23,1.25-.63,2.49-1.26,3.74-1.89,1.95-.99,3.9-1.98,5.84-2.98,1.15-.59,2.29-1.18,3.43-1.78,1.49-.78,3.58-2.37,3.55-3.54-.05-1.54-1.57-3.57-3.06-4.46ZM382.91,281.72c-.65-2.21-1.3-4.42-1.94-6.62-2.53-8.6-5.05-17.2-7.58-25.79l-2.25-7.68h0c-5.66-19.29-11.32-38.57-16.99-57.86-.52-1.76-.66-3.72-3.54-3.66-2.85.06-2.89,1.93-3.41,3.75-4.28,14.73-8.56,29.45-12.83,44.18-.63,2.17-1.26,4.33-1.89,6.5-2.58,8.88-5.16,17.77-7.74,26.65-.66,2.25-1.31,4.51-1.97,6.76-9.02,31.07-18.05,62.14-27.07,93.21,25.19-10.73,51.46-17.03,79.21-15.33,9.65.59,19.44,2.94,28.63,6.1-6.87-23.41-13.75-46.81-20.62-70.21ZM642.22,605.33c-6.01-3.58-11.87-7.32-17.57-11.27-1.91-1.31-3.79-2.65-5.66-4.01,1.49,4.56,2.97,9.13,4.46,13.7h0c1.76,5.42,3.51,10.82,5.27,16.23,1.25-.63,2.49-1.26,3.74-1.89,1.95-.99,3.9-1.98,5.84-2.98,1.15-.59,2.29-1.18,3.43-1.78,1.49-.78,3.58-2.37,3.55-3.54-.05-1.54-1.57-3.57-3.06-4.46ZM864.9,501.23c-25.82-24.85-55.04-44.45-88.57-57.31-4.68-1.8-9.74-2.96-14.73-3.56-21.02-2.52-28.35,13.01-29.23,26.61-.94,14.43,3.5,27.98,9.95,40.49,2.89,5.6,5.84,11.16,8.83,16.7,10.37.25,20.77.09,31.19-.33,2.34-.1,4.69-.21,7.03-.33,2.15-.11,4.3-.22,6.45-.35,11.42-.67,22.78-1.72,34.1-3.04,2.57-.29,5.14-.6,7.7-.92,13.03-1.64,25.99-3.6,38.95-5.7-3.66-4.24-7.56-8.31-11.67-12.26ZM826.27,902.47c-10.37-2.54-21.52-1.94-32.33-2.53-3.87-.21-7.17,1.22-9.48,4.76-3.68,5.63-7.8,11.02-11.58,16.58,24.84-1.76,49.08-5.8,72.73-12.1-5.99-2.77-12.43-5.01-19.34-6.71ZM642.22,605.33c-6.01-3.58-11.87-7.32-17.57-11.27-1.91-1.31-3.79-2.65-5.66-4.01,1.49,4.56,2.97,9.13,4.46,13.7h0c1.76,5.42,3.51,10.82,5.27,16.23,1.25-.63,2.49-1.26,3.74-1.89,1.95-.99,3.9-1.98,5.84-2.98,1.15-.59,2.29-1.18,3.43-1.78,1.49-.78,3.58-2.37,3.55-3.54-.05-1.54-1.57-3.57-3.06-4.46ZM382.91,281.72c-.65-2.21-1.3-4.42-1.94-6.62-2.53-8.6-5.05-17.2-7.58-25.79l-2.25-7.68h0c-5.66-19.29-11.32-38.57-16.99-57.86-.52-1.76-.66-3.72-3.54-3.66-2.85.06-2.89,1.93-3.41,3.75-4.28,14.73-8.56,29.45-12.83,44.18-.63,2.17-1.26,4.33-1.89,6.5-2.58,8.88-5.16,17.77-7.74,26.65-.66,2.25-1.31,4.51-1.97,6.76-9.02,31.07-18.05,62.14-27.07,93.21,25.19-10.73,51.46-17.03,79.21-15.33,9.65.59,19.44,2.94,28.63,6.1-6.87-23.41-13.75-46.81-20.62-70.21ZM642.22,605.33c-6.01-3.58-11.87-7.32-17.57-11.27-1.91-1.31-3.79-2.65-5.66-4.01,1.49,4.56,2.97,9.13,4.46,13.7h0c1.76,5.42,3.51,10.82,5.27,16.23,1.25-.63,2.49-1.26,3.74-1.89,1.95-.99,3.9-1.98,5.84-2.98,1.15-.59,2.29-1.18,3.43-1.78,1.49-.78,3.58-2.37,3.55-3.54-.05-1.54-1.57-3.57-3.06-4.46ZM864.9,501.23c-25.82-24.85-55.04-44.45-88.57-57.31-4.68-1.8-9.74-2.96-14.73-3.56-21.02-2.52-28.35,13.01-29.23,26.61-.94,14.43,3.5,27.98,9.95,40.49,2.89,5.6,5.84,11.16,8.83,16.7,10.37.25,20.77.09,31.19-.33,2.34-.1,4.69-.21,7.03-.33,2.15-.11,4.3-.22,6.45-.35,11.42-.67,22.78-1.72,34.1-3.04,2.57-.29,5.14-.6,7.7-.92,13.03-1.64,25.99-3.6,38.95-5.7-3.66-4.24-7.56-8.31-11.67-12.26ZM826.27,902.47c-10.37-2.54-21.52-1.94-32.33-2.53-3.87-.21-7.17,1.22-9.48,4.76-3.68,5.63-7.8,11.02-11.58,16.58,24.84-1.76,49.08-5.8,72.73-12.1-5.99-2.77-12.43-5.01-19.34-6.71ZM642.22,605.33c-6.01-3.58-11.87-7.32-17.57-11.27-1.91-1.31-3.79-2.65-5.66-4.01,1.49,4.56,2.97,9.13,4.46,13.7h0c1.76,5.42,3.51,10.82,5.27,16.23,1.25-.63,2.49-1.26,3.74-1.89,1.95-.99,3.9-1.98,5.84-2.98,1.15-.59,2.29-1.18,3.43-1.78,1.49-.78,3.58-2.37,3.55-3.54-.05-1.54-1.57-3.57-3.06-4.46ZM382.91,281.72c-.65-2.21-1.3-4.42-1.94-6.62-2.53-8.6-5.05-17.2-7.58-25.79l-2.25-7.68h0c-5.66-19.29-11.32-38.57-16.99-57.86-.52-1.76-.66-3.72-3.54-3.66-2.85.06-2.89,1.93-3.41,3.75-4.28,14.73-8.56,29.45-12.83,44.18-.63,2.17-1.26,4.33-1.89,6.5-2.58,8.88-5.16,17.77-7.74,26.65-.66,2.25-1.31,4.51-1.97,6.76-9.02,31.07-18.05,62.14-27.07,93.21,25.19-10.73,51.46-17.03,79.21-15.33,9.65.59,19.44,2.94,28.63,6.1-6.87-23.41-13.75-46.81-20.62-70.21ZM642.22,605.33c-6.01-3.58-11.87-7.32-17.57-11.27-1.91-1.31-3.79-2.65-5.66-4.01,1.49,4.56,2.97,9.13,4.46,13.7h0c1.76,5.42,3.51,10.82,5.27,16.23,1.25-.63,2.49-1.26,3.74-1.89,1.95-.99,3.9-1.98,5.84-2.98,1.15-.59,2.29-1.18,3.43-1.78,1.49-.78,3.58-2.37,3.55-3.54-.05-1.54-1.57-3.57-3.06-4.46ZM864.9,501.23c-25.82-24.85-55.04-44.45-88.57-57.31-4.68-1.8-9.74-2.96-14.73-3.56-21.02-2.52-28.35,13.01-29.23,26.61-.94,14.43,3.5,27.98,9.95,40.49,2.89,5.6,5.84,11.16,8.83,16.7,10.37.25,20.77.09,31.19-.33,2.34-.1,4.69-.21,7.03-.33,2.15-.11,4.3-.22,6.45-.35,11.42-.67,22.78-1.72,34.1-3.04,2.57-.29,5.14-.6,7.7-.92,13.03-1.64,25.99-3.6,38.95-5.7-3.66-4.24-7.56-8.31-11.67-12.26ZM826.27,902.47c-10.37-2.54-21.52-1.94-32.33-2.53-3.87-.21-7.17,1.22-9.48,4.76-3.68,5.63-7.8,11.02-11.58,16.58,24.84-1.76,49.08-5.8,72.73-12.1-5.99-2.77-12.43-5.01-19.34-6.71ZM642.22,605.33c-6.01-3.58-11.87-7.32-17.57-11.27-1.91-1.31-3.79-2.65-5.66-4.01,1.49,4.56,2.97,9.13,4.46,13.7h0c1.76,5.42,3.51,10.82,5.27,16.23,1.25-.63,2.49-1.26,3.74-1.89,1.95-.99,3.9-1.98,5.84-2.98,1.15-.59,2.29-1.18,3.43-1.78,1.49-.78,3.58-2.37,3.55-3.54-.05-1.54-1.57-3.57-3.06-4.46ZM382.91,281.72c-.65-2.21-1.3-4.42-1.94-6.62-2.53-8.6-5.05-17.2-7.58-25.79l-2.25-7.68h0c-5.66-19.29-11.32-38.57-16.99-57.86-.52-1.76-.66-3.72-3.54-3.66-2.85.06-2.89,1.93-3.41,3.75-4.28,14.73-8.56,29.45-12.83,44.18-.63,2.17-1.26,4.33-1.89,6.5-2.58,8.88-5.16,17.77-7.74,26.65-.66,2.25-1.31,4.51-1.97,6.76-9.02,31.07-18.05,62.14-27.07,93.21,25.19-10.73,51.46-17.03,79.21-15.33,9.65.59,19.44,2.94,28.63,6.1-6.87-23.41-13.75-46.81-20.62-70.21ZM642.22,605.33c-6.01-3.58-11.87-7.32-17.57-11.27-1.91-1.31-3.79-2.65-5.66-4.01,1.49,4.56,2.97,9.13,4.46,13.7h0c1.76,5.42,3.51,10.82,5.27,16.23,1.25-.63,2.49-1.26,3.74-1.89,1.95-.99,3.9-1.98,5.84-2.98,1.15-.59,2.29-1.18,3.43-1.78,1.49-.78,3.58-2.37,3.55-3.54-.05-1.54-1.57-3.57-3.06-4.46ZM864.9,501.23c-25.82-24.85-55.04-44.45-88.57-57.31-4.68-1.8-9.74-2.96-14.73-3.56-21.02-2.52-28.35,13.01-29.23,26.61-.94,14.43,3.5,27.98,9.95,40.49,2.89,5.6,5.84,11.16,8.83,16.7,10.37.25,20.77.09,31.19-.33,2.34-.1,4.69-.21,7.03-.33,2.15-.11,4.3-.22,6.45-.35,11.42-.67,22.78-1.72,34.1-3.04,2.57-.29,5.14-.6,7.7-.92,13.03-1.64,25.99-3.6,38.95-5.7-3.66-4.24-7.56-8.31-11.67-12.26ZM826.27,902.47c-10.37-2.54-21.52-1.94-32.33-2.53-3.87-.21-7.17,1.22-9.48,4.76-3.68,5.63-7.8,11.02-11.58,16.58,24.84-1.76,49.08-5.8,72.73-12.1-5.99-2.77-12.43-5.01-19.34-6.71ZM642.22,605.33c-6.01-3.58-11.87-7.32-17.57-11.27-1.91-1.31-3.79-2.65-5.66-4.01,1.49,4.56,2.97,9.13,4.46,13.7h0c1.76,5.42,3.51,10.82,5.27,16.23,1.25-.63,2.49-1.26,3.74-1.89,1.95-.99,3.9-1.98,5.84-2.98,1.15-.59,2.29-1.18,3.43-1.78,1.49-.78,3.58-2.37,3.55-3.54-.05-1.54-1.57-3.57-3.06-4.46ZM354.14,183.77c-.52-1.76-.66-3.72-3.54-3.66-2.85.06-2.89,1.93-3.41,3.75-4.28,14.73-8.56,29.45-12.83,44.18,12.14,4.86,24.4,9.4,36.77,13.59-5.66-19.29-11.32-38.57-16.99-57.86ZM642.22,605.33c-6.01-3.58-11.87-7.32-17.57-11.27-1.91-1.31-3.79-2.65-5.66-4.01,1.49,4.56,2.97,9.13,4.46,13.7h0c1.76,5.42,3.51,10.82,5.27,16.23,1.25-.63,2.49-1.26,3.74-1.89,1.95-.99,3.9-1.98,5.84-2.98,1.15-.59,2.29-1.18,3.43-1.78,1.49-.78,3.58-2.37,3.55-3.54-.05-1.54-1.57-3.57-3.06-4.46ZM864.9,501.23c-25.82-24.85-55.04-44.45-88.57-57.31-4.68-1.8-9.74-2.96-14.73-3.56-21.02-2.52-28.35,13.01-29.23,26.61-.94,14.43,3.5,27.98,9.95,40.49,2.89,5.6,5.84,11.16,8.83,16.7,10.37.25,20.77.09,31.19-.33,2.34-.1,4.69-.21,7.03-.33,2.15-.11,4.3-.22,6.45-.35,11.42-.67,22.78-1.72,34.1-3.04,2.57-.29,5.14-.6,7.7-.92,13.03-1.64,25.99-3.6,38.95-5.7-3.66-4.24-7.56-8.31-11.67-12.26ZM826.27,902.47c-10.37-2.54-21.52-1.94-32.33-2.53-3.87-.21-7.17,1.22-9.48,4.76-3.68,5.63-7.8,11.02-11.58,16.58,24.84-1.76,49.08-5.8,72.73-12.1-5.99-2.77-12.43-5.01-19.34-6.71ZM642.22,605.33c-6.01-3.58-11.87-7.32-17.57-11.27-1.91-1.31-3.79-2.65-5.66-4.01,1.49,4.56,2.97,9.13,4.46,13.7h0c1.76,5.42,3.51,10.82,5.27,16.23,1.25-.63,2.49-1.26,3.74-1.89,1.95-.99,3.9-1.98,5.84-2.98,1.15-.59,2.29-1.18,3.43-1.78,1.49-.78,3.58-2.37,3.55-3.54-.05-1.54-1.57-3.57-3.06-4.46ZM642.22,605.33c-6.01-3.58-11.87-7.32-17.57-11.27-1.91-1.31-3.79-2.65-5.66-4.01,1.49,4.56,2.97,9.13,4.46,13.7h0c1.76,5.42,3.51,10.82,5.27,16.23,1.25-.63,2.49-1.26,3.74-1.89,1.95-.99,3.9-1.98,5.84-2.98,1.15-.59,2.29-1.18,3.43-1.78,1.49-.78,3.58-2.37,3.55-3.54-.05-1.54-1.57-3.57-3.06-4.46ZM864.9,501.23c-25.82-24.85-55.04-44.45-88.57-57.31-4.68-1.8-9.74-2.96-14.73-3.56-21.02-2.52-28.35,13.01-29.23,26.61-.94,14.43,3.5,27.98,9.95,40.49,2.89,5.6,5.84,11.16,8.83,16.7,10.37.25,20.77.09,31.19-.33,2.34-.1,4.69-.21,7.03-.33,2.15-.11,4.3-.22,6.45-.35,11.42-.67,22.78-1.72,34.1-3.04,2.57-.29,5.14-.6,7.7-.92,13.03-1.64,25.99-3.6,38.95-5.7-3.66-4.24-7.56-8.31-11.67-12.26ZM826.27,902.47c-10.37-2.54-21.52-1.94-32.33-2.53-3.87-.21-7.17,1.22-9.48,4.76-3.68,5.63-7.8,11.02-11.58,16.58,24.84-1.76,49.08-5.8,72.73-12.1-5.99-2.77-12.43-5.01-19.34-6.71ZM642.22,605.33c-6.01-3.58-11.87-7.32-17.57-11.27-1.91-1.31-3.79-2.65-5.66-4.01,1.49,4.56,2.97,9.13,4.46,13.7h0c1.76,5.42,3.51,10.82,5.27,16.23,1.25-.63,2.49-1.26,3.74-1.89,1.95-.99,3.9-1.98,5.84-2.98,1.15-.59,2.29-1.18,3.43-1.78,1.49-.78,3.58-2.37,3.55-3.54-.05-1.54-1.57-3.57-3.06-4.46ZM642.22,605.33c-6.01-3.58-11.87-7.32-17.57-11.27-1.91-1.31-3.79-2.65-5.66-4.01,1.49,4.56,2.97,9.13,4.46,13.7h0c1.76,5.42,3.51,10.82,5.27,16.23,1.25-.63,2.49-1.26,3.74-1.89,1.95-.99,3.9-1.98,5.84-2.98,1.15-.59,2.29-1.18,3.43-1.78,1.49-.78,3.58-2.37,3.55-3.54-.05-1.54-1.57-3.57-3.06-4.46ZM864.9,501.23c-25.82-24.85-55.04-44.45-88.57-57.31-4.68-1.8-9.74-2.96-14.73-3.56-21.02-2.52-28.35,13.01-29.23,26.61-.94,14.43,3.5,27.98,9.95,40.49,2.89,5.6,5.84,11.16,8.83,16.7,10.37.25,20.77.09,31.19-.33,2.34-.1,4.69-.21,7.03-.33,2.15-.11,4.3-.22,6.45-.35,11.42-.67,22.78-1.72,34.1-3.04,2.57-.29,5.14-.6,7.7-.92,13.03-1.64,25.99-3.6,38.95-5.7-3.66-4.24-7.56-8.31-11.67-12.26ZM826.27,902.47c-10.37-2.54-21.52-1.94-32.33-2.53-3.87-.21-7.17,1.22-9.48,4.76-3.68,5.63-7.8,11.02-11.58,16.58,24.84-1.76,49.08-5.8,72.73-12.1-5.99-2.77-12.43-5.01-19.34-6.71ZM642.22,605.33c-6.01-3.58-11.87-7.32-17.57-11.27-1.91-1.31-3.79-2.65-5.66-4.01,1.49,4.56,2.97,9.13,4.46,13.7h0c1.76,5.42,3.51,10.82,5.27,16.23,1.25-.63,2.49-1.26,3.74-1.89,1.95-.99,3.9-1.98,5.84-2.98,1.15-.59,2.29-1.18,3.43-1.78,1.49-.78,3.58-2.37,3.55-3.54-.05-1.54-1.57-3.57-3.06-4.46ZM864.9,501.23c-25.82-24.85-55.04-44.45-88.57-57.31-4.68-1.8-9.74-2.96-14.73-3.56-21.02-2.52-28.35,13.01-29.23,26.61-.94,14.43,3.5,27.98,9.95,40.49,2.89,5.6,5.84,11.16,8.83,16.7,10.37.25,20.77.09,31.19-.33,2.34-.1,4.69-.21,7.03-.33,2.15-.11,4.3-.22,6.45-.35,11.42-.67,22.78-1.72,34.1-3.04,2.57-.29,5.14-.6,7.7-.92,13.03-1.64,25.99-3.6,38.95-5.7-3.66-4.24-7.56-8.31-11.67-12.26ZM826.27,902.47c-10.37-2.54-21.52-1.94-32.33-2.53-3.87-.21-7.17,1.22-9.48,4.76-3.68,5.63-7.8,11.02-11.58,16.58,24.84-1.76,49.08-5.8,72.73-12.1-5.99-2.77-12.43-5.01-19.34-6.71ZM826.27,902.47c-10.37-2.54-21.52-1.94-32.33-2.53-3.87-.21-7.17,1.22-9.48,4.76-3.68,5.63-7.8,11.02-11.58,16.58,24.84-1.76,49.08-5.8,72.73-12.1-5.99-2.77-12.43-5.01-19.34-6.71Z"/>
  <path class="cls-3" d="M603.95,473.19c-8.9-3.43-17.73-7.06-26.5-10.85-7.95-24.41-15.89-48.83-23.83-73.25.69.29,1.37.57,2.06.85,25,10.31,49.48,22.01,75.89,28.49.47.12.94.23,1.41.34-.34,1.02-.65,2.06-.94,3.12-5.96,21.85-5.56,42.84,6.16,60.92-11.58-2.77-23.23-5.37-34.25-9.62Z"/>
  <path class="cls-3" d="M758.12,656.75c-30.4,7.48-60.25,16.46-88.48,29.42-2.04.92-4.07,1.88-6.1,2.86-3.57,1.72-7.11,3.51-10.62,5.38-8.07-24.81-16.13-49.62-24.2-74.43,1.25-.63,2.49-1.26,3.74-1.89,1.95-.99,3.9-1.98,5.84-2.98,1.15-.59,2.29-1.18,3.43-1.78,1.49-.78,3.58-2.37,3.55-3.54-.05-1.54-1.57-3.57-3.06-4.46-6.01-3.58-11.87-7.32-17.57-11.27-1.91-1.31-3.79-2.65-5.66-4.01-.69-2.13-1.38-4.26-2.07-6.38-5.76-17.7-11.51-35.4-17.27-53.1-6.42-19.72-12.83-39.43-19.25-59.15,18.6,7.56,37.7,13.78,57.64,17.99,2.14.45,4.27.95,6.38,1.52,1.97,2.21,4.15,4.37,6.54,6.47,11.04,9.71,24.29,15.39,38.37,19.09,31.35,29.77,51.16,66.55,62.18,108.41,2.79,10.57,4.97,21.19,6.61,31.85Z"/>
  <path class="cls-3" d="M566.22,387.07c-5.09-2.25-10.19-4.37-15.33-6.35-.27-.81-.53-1.62-.79-2.44,4.34-13.01,10.06-25.67,17.17-37.95,11.7,2.17,23.57,3.41,35.67,3.28,38.81-.41,73.45-24.01,87.57-60.14,4.93-12.59,7.8-25.47,9.05-38.55,30.65-6.55,60.59-7.63,89.58-2.54,1.2,6.48,2.07,13.08,2.55,19.81,2.15,30.28-3.4,58.63-19.5,84.62-5.22,8.41-11.26,15.89-17.92,22.68-24.09-3.03-47.97-2.26-71.29,5-21.71,6.76-39,18.56-47.64,38.11-23.93-6.26-46.64-15.61-69.12-25.53Z"/>
  <path class="cls-3" d="M583.43,335.78c-4.12-.53-8.23-1.16-12.31-1.87.45-.73.91-1.46,1.37-2.18,26.79-41.85,64.6-70.74,113.94-83.69,2.05-.54,4.1-1.05,6.15-1.54-.57,5.01-1.36,10.03-2.35,15.06-3.17,16.16-9.25,31.12-20.16,43.76-23.05,26.7-52.77,34.85-86.64,30.46Z"/>
  <path class="cls-3" d="M935.15,344.92c-22.74,19.43-45.45,38.83-68.12,58.19-1.72,1.48-3.45,2.96-5.18,4.42-7.1,6.08-14.2,12.15-21.3,18.21-5.26-6.7-10.02-13.38-15.43-19.53-7.04-7.99-14.81-14.71-23.32-20.15-2.05-1.33-4.14-2.57-6.27-3.72-10.03-5.49-20.99-9.35-32.88-11.57,6.71-7.36,12.73-15.44,17.9-24.38,18.75-32.43,21.51-67.01,15.52-102.67,15.72,3.3,31.14,8.46,46.24,15.58,2.4,1.13,4.8,2.32,7.19,3.56,6.87,3.54,13.67,7.51,20.39,11.9,20,13.07,36.44,29.38,50.39,47.85,1.58,2.08,3.12,4.18,4.63,6.32,3.15,4.44,6.17,9,9.07,13.66.4.65.69,1.36,1.17,2.33Z"/>
  <path class="cls-3" d="M969.18,619.19c-3.1.52-6.14,1.02-9.14,1.52h-.01c-4.2.7-8.31,1.39-12.44,2.08-11.78,1.96-23.59,3.83-35.39,5.68-2.02.32-4.03.63-6.05.95-26.17,4.09-52.35,8.11-78.41,12.78-2.07.36-4.14.74-6.21,1.12-5.87,1.07-11.73,2.18-17.59,3.34-2.33.45-4.67.92-7,1.4-10.76,2.18-21.49,4.52-32.18,7.08-7.46-48.89-25.41-93.05-58.13-130.72-1.52-1.75-3.06-3.46-4.64-5.13,13.49,2.53,27.03,3.94,40.61,4.57,2.85.14,5.7.24,8.55.3,10.37.25,20.77.09,31.19-.33,2.34-.1,4.69-.21,7.03-.33,2.15-.11,4.3-.22,6.45-.35,11.42-.67,22.78-1.72,34.1-3.04,2.57-.29,5.14-.6,7.7-.92,13.03-1.64,25.99-3.6,38.95-5.7h0c2.6-.41,5.2-.84,7.79-1.27,5.78-.95,11.55-1.93,17.33-2.91h.01c2.45-.42,4.88-.84,7.33-1.26,3.16-.54,6.32-1.07,9.48-1.61,9.69-1.65,19.4-3.2,30.04-4.95,2.51,14.3,5.01,28.6,7.52,42.93.45,2.53.89,5.06,1.33,7.6,3.64,20.78,7.3,41.63,10.98,62.64.26,1.51.53,3.02.79,4.53Z"/>
  <path class="cls-3" d="M862.45,1021.05c2.53,4.5,4.67,9.09,6.5,13.77-10.82,2.78-21.8,5.23-32.92,7.35-23.61,4.51-47.37,7.09-71.23,7.89,2.52-4.58,5.92-8.67,10.56-11.89,12.77-8.86,25.72-17.45,38.77-25.91,3.36-2.17,7.24-3.65,11.05-5,16.57-5.88,28.61-1.58,37.27,13.79Z"/>
  <path class="cls-3" d="M510.42,951.73c-9.04-13.31-16.36-27.92-21.96-43.84,3.48,3.07,6.56,6.79,9.21,11.14,6.54,10.69,10.8,21.6,12.75,32.7Z"/>
  <path class="cls-3" d="M602.06,882.99c-2.98,13.12-7.36,25.95-11.96,38.67-9.57,26.42-21.32,51.81-33.91,76.8-14.54-10.5-27.15-22.46-37.81-35.89-.41-11.26-3.01-22.6-7.97-34.03-5.5-12.68-13.1-23.54-25.21-30.72h0c-1.91-6.44-3.55-13.07-4.93-19.9-5.09-25.24-6.24-50.71-3.38-76.16,2.9-25.83,10.91-49.78,23.61-71.89.01,0,.01-.01.01-.01,16.13-8.85,32.45-8.55,48.48,1.75,5.24,3.37,10.57,7.04,14.72,11.6,6.6,7.24,12.46,14.79,17.54,22.65-4.99,12.72-7.26,26.04-6.99,39.88.26,13.05-.14,26.12,3.7,38.86,4.67,15.47,12.89,28.13,24.1,38.39Z"/>
  <path class="cls-3" d="M630.3,707.89c-19.14,12.97-35.18,28.93-45.54,49.99-.05.11-.11.22-.16.33-7.24-11.23-16.05-21.24-27.3-29.24-16.56-11.77-33.45-14.84-50.75-8.93,2.67-4.09,5.51-8.11,8.54-12.07,38.41-.11,76.81-.09,115.21-.08Z"/>
  <path class="cls-3" d="M705.58,920.16c-6.39,11.22-13.2,22.24-20.25,33.16-14.23,22-27.3,44.81-39.8,67.86-2.74,5.05-5.23,10.23-7.38,15.55-12.55-3.49-24.89-7.79-37-13.03-.81-.35-1.62-.7-2.43-1.06-1.21-.54-2.41-1.08-3.6-1.63-12.03-5.56-23.17-11.79-33.41-18.7,15.71-31.21,30.16-62.99,40.72-96.54,1.89-6,3.62-12.04,5.11-18.13,4.95,3.9,10.38,7.41,16.26,10.56,11.45,6.14,23.48,10.65,35.89,13.98h.01c2.25.62,4.5,1.18,6.77,1.72,6.76,1.58,13.62,2.86,20.55,3.91,6.17.93,12.36,1.71,18.56,2.35Z"/>
  <path class="cls-3" d="M1050.11,939.41c-7.83,6.52-15.4,13.22-23.34,19.44h0c-.52.43-1.04.83-1.57,1.24-1.34,1.04-2.69,2.06-4.04,3.07-5.12,3.86-10.31,7.56-15.56,11.13-2.19,1.49-4.39,2.95-6.61,4.39-8.2,5.34-16.57,10.35-25.08,15.05-2.11,1.17-4.23,2.31-6.36,3.44-9.96,5.27-20.12,10.11-30.46,14.56-2.18.94-4.37,1.86-6.57,2.76-17.78,7.31-36.11,13.47-54.93,18.57-2.33-6.27-5.22-12.32-8.98-18.05-10.15-15.45-24.33-20.81-41.73-14.78-8.05,2.78-15.69,7.11-22.96,11.62-9.77,6.05-19.28,12.61-28.36,19.65-4.98,3.85-9.84,8.56-13.01,13.91-.95,1.59-1.82,3.2-2.64,4.83-13.19.26-26.42-.02-39.66-.81-8.9-.53-17.74-1.29-26.53-2.34-2.28-.26-4.55-.55-6.82-.86-13.61-1.84-27.06-4.38-40.3-7.77,2.7-7.07,5.95-14.02,9.61-20.87,7.34-13.72,15.3-27.13,23.41-40.42,11.54-18.91,24.19-37.21,35.33-56.32,17.27,1.47,34.61,1.8,51.94.92h.01c2.27-.11,4.52-.25,6.79-.4.4-.03.79-.05,1.19-.09,24.84-1.76,49.08-5.8,72.73-12.1h.01c3.17-.84,6.32-1.72,9.46-2.64,13.32-3.92,26.44-8.56,39.35-13.93,2.09-.86,4.17-1.75,6.24-2.65,2.44-1.06,4.87-2.15,7.3-3.27,4.23-1.95,8.41-3.98,12.53-6.1,2.03-1.03,4.05-2.09,6.05-3.17,11.95-6.45,23.39-13.61,34.33-21.52,1.82-1.3,3.62-2.63,5.4-3.99,4.31-3.26,8.55-6.65,12.7-10.16,1.31-1.11,2.72-2.11,4.46-3.45,22.17,33.63,44.21,67.05,66.67,101.11Z"/>
  <path class="cls-3" d="M500.94,373.65c-14.32-1.48-28.7-2.66-43.09-3.26-16.25-.68-32.05-3.64-47.08-9.49-1.72-.67-3.44-1.3-5.16-1.87,6.04,20.56,12.08,41.13,18.12,61.7,40.72-2.72,79.07,6.48,115.86,24.24-.07-20.15,2.55-39.61,7.92-58.35-15.03-6.01-30.3-11.29-46.57-12.97ZM500.94,373.65c-14.32-1.48-28.7-2.66-43.09-3.26-16.25-.68-32.05-3.64-47.08-9.49-1.72-.67-3.44-1.3-5.16-1.87,6.04,20.56,12.08,41.13,18.12,61.7,40.72-2.72,79.07,6.48,115.86,24.24-.07-20.15,2.55-39.61,7.92-58.35-15.03-6.01-30.3-11.29-46.57-12.97ZM500.94,373.65c-14.32-1.48-28.7-2.66-43.09-3.26-16.25-.68-32.05-3.64-47.08-9.49-1.72-.67-3.44-1.3-5.16-1.87,6.04,20.56,12.08,41.13,18.12,61.7,40.72-2.72,79.07,6.48,115.86,24.24-.07-20.15,2.55-39.61,7.92-58.35-15.03-6.01-30.3-11.29-46.57-12.97ZM500.94,373.65c-14.32-1.48-28.7-2.66-43.09-3.26-16.25-.68-32.05-3.64-47.08-9.49-1.72-.67-3.44-1.3-5.16-1.87,6.04,20.56,12.08,41.13,18.12,61.7,40.72-2.72,79.07,6.48,115.86,24.24-.07-20.15,2.55-39.61,7.92-58.35-15.03-6.01-30.3-11.29-46.57-12.97ZM500.94,373.65c-14.32-1.48-28.7-2.66-43.09-3.26-16.25-.68-32.05-3.64-47.08-9.49-1.72-.67-3.44-1.3-5.16-1.87,6.04,20.56,12.08,41.13,18.12,61.7,40.72-2.72,79.07,6.48,115.86,24.24-.07-20.15,2.55-39.61,7.92-58.35-15.03-6.01-30.3-11.29-46.57-12.97ZM500.94,373.65c-14.32-1.48-28.7-2.66-43.09-3.26-16.25-.68-32.05-3.64-47.08-9.49-1.72-.67-3.44-1.3-5.16-1.87,6.04,20.56,12.08,41.13,18.12,61.7,40.72-2.72,79.07,6.48,115.86,24.24-.07-20.15,2.55-39.61,7.92-58.35-15.03-6.01-30.3-11.29-46.57-12.97ZM500.94,373.65c-14.32-1.48-28.7-2.66-43.09-3.26-16.25-.68-32.05-3.64-47.08-9.49-1.72-.67-3.44-1.3-5.16-1.87,6.04,20.56,12.08,41.13,18.12,61.7,40.72-2.72,79.07,6.48,115.86,24.24-.07-20.15,2.55-39.61,7.92-58.35-15.03-6.01-30.3-11.29-46.57-12.97ZM444.61,53.84c-.93-2.87-2.13-3.71-5.07-3.69-24.98.12-49.96.07-74.94.07-31.46,0-62.91.05-94.36-.08-3.01-.01-4.33.91-5.16,3.72-1.82,6.19-3.94,12.28-5.95,18.4-.13.4-.26.8-.39,1.2,1.22.42,2.43.88,3.63,1.37,12.99,5.29,25.79,11.07,38.55,16.91,14.78,6.76,29.53,13.48,45.61,16.67,22.18,4.41,43.5.14,64.47-6.59,15.21-4.88,29.67-11.39,42.02-21.96.01-.01.03-.02.04-.03-2.82-8.66-5.64-17.33-8.45-25.99ZM500.94,373.65c-14.32-1.48-28.7-2.66-43.09-3.26-16.25-.68-32.05-3.64-47.08-9.49-1.72-.67-3.44-1.3-5.16-1.87,6.04,20.56,12.08,41.13,18.12,61.7,40.72-2.72,79.07,6.48,115.86,24.24-.07-20.15,2.55-39.61,7.92-58.35-15.03-6.01-30.3-11.29-46.57-12.97ZM500.94,373.65c-14.32-1.48-28.7-2.66-43.09-3.26-16.25-.68-32.05-3.64-47.08-9.49-1.72-.67-3.44-1.3-5.16-1.87,6.04,20.56,12.08,41.13,18.12,61.7,40.72-2.72,79.07,6.48,115.86,24.24-.07-20.15,2.55-39.61,7.92-58.35-15.03-6.01-30.3-11.29-46.57-12.97ZM500.94,373.65c-14.32-1.48-28.7-2.66-43.09-3.26-16.25-.68-32.05-3.64-47.08-9.49-1.72-.67-3.44-1.3-5.16-1.87,6.04,20.56,12.08,41.13,18.12,61.7,40.72-2.72,79.07,6.48,115.86,24.24-.07-20.15,2.55-39.61,7.92-58.35-15.03-6.01-30.3-11.29-46.57-12.97ZM500.94,373.65c-14.32-1.48-28.7-2.66-43.09-3.26-16.25-.68-32.05-3.64-47.08-9.49-1.72-.67-3.44-1.3-5.16-1.87,6.04,20.56,12.08,41.13,18.12,61.7,40.72-2.72,79.07,6.48,115.86,24.24-.07-20.15,2.55-39.61,7.92-58.35-15.03-6.01-30.3-11.29-46.57-12.97ZM500.94,373.65c-14.32-1.48-28.7-2.66-43.09-3.26-16.25-.68-32.05-3.64-47.08-9.49-1.72-.67-3.44-1.3-5.16-1.87,6.04,20.56,12.08,41.13,18.12,61.7,40.72-2.72,79.07,6.48,115.86,24.24-.07-20.15,2.55-39.61,7.92-58.35-15.03-6.01-30.3-11.29-46.57-12.97ZM500.94,373.65c-14.32-1.48-28.7-2.66-43.09-3.26-16.25-.68-32.05-3.64-47.08-9.49-1.72-.67-3.44-1.3-5.16-1.87,6.04,20.56,12.08,41.13,18.12,61.7,40.72-2.72,79.07,6.48,115.86,24.24-.07-20.15,2.55-39.61,7.92-58.35-15.03-6.01-30.3-11.29-46.57-12.97ZM500.94,373.65c-14.32-1.48-28.7-2.66-43.09-3.26-16.25-.68-32.05-3.64-47.08-9.49-1.72-.67-3.44-1.3-5.16-1.87,6.04,20.56,12.08,41.13,18.12,61.7,40.72-2.72,79.07,6.48,115.86,24.24-.07-20.15,2.55-39.61,7.92-58.35-15.03-6.01-30.3-11.29-46.57-12.97ZM500.94,373.65c-14.32-1.48-28.7-2.66-43.09-3.26-16.25-.68-32.05-3.64-47.08-9.49-1.72-.67-3.44-1.3-5.16-1.87,6.04,20.56,12.08,41.13,18.12,61.7,40.72-2.72,79.07,6.48,115.86,24.24-.07-20.15,2.55-39.61,7.92-58.35-15.03-6.01-30.3-11.29-46.57-12.97ZM500.94,373.65c-14.32-1.48-28.7-2.66-43.09-3.26-16.25-.68-32.05-3.64-47.08-9.49-1.72-.67-3.44-1.3-5.16-1.87,6.04,20.56,12.08,41.13,18.12,61.7,40.72-2.72,79.07,6.48,115.86,24.24-.07-20.15,2.55-39.61,7.92-58.35-15.03-6.01-30.3-11.29-46.57-12.97ZM500.94,373.65c-14.32-1.48-28.7-2.66-43.09-3.26-16.25-.68-32.05-3.64-47.08-9.49-1.72-.67-3.44-1.3-5.16-1.87,6.04,20.56,12.08,41.13,18.12,61.7,40.72-2.72,79.07,6.48,115.86,24.24-.07-20.15,2.55-39.61,7.92-58.35-15.03-6.01-30.3-11.29-46.57-12.97ZM500.94,373.65c-14.32-1.48-28.7-2.66-43.09-3.26-16.25-.68-32.05-3.64-47.08-9.49-1.72-.67-3.44-1.3-5.16-1.87,6.04,20.56,12.08,41.13,18.12,61.7,40.72-2.72,79.07,6.48,115.86,24.24-.07-20.15,2.55-39.61,7.92-58.35-15.03-6.01-30.3-11.29-46.57-12.97ZM500.94,373.65c-14.32-1.48-28.7-2.66-43.09-3.26-16.25-.68-32.05-3.64-47.08-9.49-1.72-.67-3.44-1.3-5.16-1.87,6.04,20.56,12.08,41.13,18.12,61.7,40.72-2.72,79.07,6.48,115.86,24.24-.07-20.15,2.55-39.61,7.92-58.35-15.03-6.01-30.3-11.29-46.57-12.97ZM500.94,373.65c-14.32-1.48-28.7-2.66-43.09-3.26-16.25-.68-32.05-3.64-47.08-9.49-1.72-.67-3.44-1.3-5.16-1.87,6.04,20.56,12.08,41.13,18.12,61.7,40.72-2.72,79.07,6.48,115.86,24.24-.07-20.15,2.55-39.61,7.92-58.35-15.03-6.01-30.3-11.29-46.57-12.97ZM500.94,373.65c-14.32-1.48-28.7-2.66-43.09-3.26-16.25-.68-32.05-3.64-47.08-9.49-1.72-.67-3.44-1.3-5.16-1.87,6.04,20.56,12.08,41.13,18.12,61.7,40.72-2.72,79.07,6.48,115.86,24.24-.07-20.15,2.55-39.61,7.92-58.35-15.03-6.01-30.3-11.29-46.57-12.97ZM500.94,373.65c-14.32-1.48-28.7-2.66-43.09-3.26-16.25-.68-32.05-3.64-47.08-9.49-1.72-.67-3.44-1.3-5.16-1.87,6.04,20.56,12.08,41.13,18.12,61.7,40.72-2.72,79.07,6.48,115.86,24.24-.07-20.15,2.55-39.61,7.92-58.35-15.03-6.01-30.3-11.29-46.57-12.97ZM500.94,373.65c-14.32-1.48-28.7-2.66-43.09-3.26-16.25-.68-32.05-3.64-47.08-9.49-1.72-.67-3.44-1.3-5.16-1.87,6.04,20.56,12.08,41.13,18.12,61.7,40.72-2.72,79.07,6.48,115.86,24.24-.07-20.15,2.55-39.61,7.92-58.35-15.03-6.01-30.3-11.29-46.57-12.97ZM500.94,373.65c-14.32-1.48-28.7-2.66-43.09-3.26-16.25-.68-32.05-3.64-47.08-9.49-1.72-.67-3.44-1.3-5.16-1.87,6.04,20.56,12.08,41.13,18.12,61.7,40.72-2.72,79.07,6.48,115.86,24.24-.07-20.15,2.55-39.61,7.92-58.35-15.03-6.01-30.3-11.29-46.57-12.97ZM500.94,373.65c-14.32-1.48-28.7-2.66-43.09-3.26-16.25-.68-32.05-3.64-47.08-9.49-1.72-.67-3.44-1.3-5.16-1.87,6.04,20.56,12.08,41.13,18.12,61.7,40.72-2.72,79.07,6.48,115.86,24.24-.07-20.15,2.55-39.61,7.92-58.35-15.03-6.01-30.3-11.29-46.57-12.97ZM286.8,391.77c2.18-7.49,4.35-14.99,6.53-22.48-37.85,16.91-59.01,47.32-66.78,87.86-4.65,24.27-2.5,48.63,2.06,72.79,2.3,12.14,5.36,24,9.07,35.62,1.03-3.43,2.06-6.85,3.09-10.28.84-2.8,1.87-3.89,4.94-3.88,20.64.03,41.27.05,61.9.05,1.33-4.03,2.94-8.01,4.81-11.96,7.91-16.63,14.15-34.04,21.97-50.72,9.14-19.5,21.08-37.1,38.6-50.33,4.49-3.39,9.18-6.26,14.05-8.63h-111.2c3.69-12.81,7.3-25.43,10.96-38.04ZM500.94,373.65c-14.32-1.48-28.7-2.66-43.09-3.26-16.25-.68-32.05-3.64-47.08-9.49-1.72-.67-3.44-1.3-5.16-1.87,6.04,20.56,12.08,41.13,18.12,61.7,40.72-2.72,79.07,6.48,115.86,24.24-.07-20.15,2.55-39.61,7.92-58.35-15.03-6.01-30.3-11.29-46.57-12.97ZM500.94,373.65c-14.32-1.48-28.7-2.66-43.09-3.26-16.25-.68-32.05-3.64-47.08-9.49-1.72-.67-3.44-1.3-5.16-1.87,6.04,20.56,12.08,41.13,18.12,61.7,40.72-2.72,79.07,6.48,115.86,24.24-.07-20.15,2.55-39.61,7.92-58.35-15.03-6.01-30.3-11.29-46.57-12.97ZM500.94,373.65c-14.32-1.48-28.7-2.66-43.09-3.26-16.25-.68-32.05-3.64-47.08-9.49-1.72-.67-3.44-1.3-5.16-1.87,6.04,20.56,12.08,41.13,18.12,61.7,40.72-2.72,79.07,6.48,115.86,24.24-.07-20.15,2.55-39.61,7.92-58.35-15.03-6.01-30.3-11.29-46.57-12.97ZM500.94,373.65c-14.32-1.48-28.7-2.66-43.09-3.26-16.25-.68-32.05-3.64-47.08-9.49-1.72-.67-3.44-1.3-5.16-1.87,6.04,20.56,12.08,41.13,18.12,61.7,40.72-2.72,79.07,6.48,115.86,24.24-.07-20.15,2.55-39.61,7.92-58.35-15.03-6.01-30.3-11.29-46.57-12.97ZM500.94,373.65c-14.32-1.48-28.7-2.66-43.09-3.26-16.25-.68-32.05-3.64-47.08-9.49-1.72-.67-3.44-1.3-5.16-1.87,6.04,20.56,12.08,41.13,18.12,61.7,40.72-2.72,79.07,6.48,115.86,24.24-.07-20.15,2.55-39.61,7.92-58.35-15.03-6.01-30.3-11.29-46.57-12.97ZM500.94,373.65c-14.32-1.48-28.7-2.66-43.09-3.26-16.25-.68-32.05-3.64-47.08-9.49-1.72-.67-3.44-1.3-5.16-1.87,6.04,20.56,12.08,41.13,18.12,61.7,40.72-2.72,79.07,6.48,115.86,24.24-.07-20.15,2.55-39.61,7.92-58.35-15.03-6.01-30.3-11.29-46.57-12.97ZM500.94,373.65c-14.32-1.48-28.7-2.66-43.09-3.26-16.25-.68-32.05-3.64-47.08-9.49-1.72-.67-3.44-1.3-5.16-1.87,6.04,20.56,12.08,41.13,18.12,61.7,40.72-2.72,79.07,6.48,115.86,24.24-.07-20.15,2.55-39.61,7.92-58.35-15.03-6.01-30.3-11.29-46.57-12.97ZM500.94,373.65c-14.32-1.48-28.7-2.66-43.09-3.26-16.25-.68-32.05-3.64-47.08-9.49-1.72-.67-3.44-1.3-5.16-1.87,6.04,20.56,12.08,41.13,18.12,61.7,40.72-2.72,79.07,6.48,115.86,24.24-.07-20.15,2.55-39.61,7.92-58.35-15.03-6.01-30.3-11.29-46.57-12.97ZM500.94,373.65c-14.32-1.48-28.7-2.66-43.09-3.26-16.25-.68-32.05-3.64-47.08-9.49-1.72-.67-3.44-1.3-5.16-1.87,6.04,20.56,12.08,41.13,18.12,61.7,40.72-2.72,79.07,6.48,115.86,24.24-.07-20.15,2.55-39.61,7.92-58.35-15.03-6.01-30.3-11.29-46.57-12.97ZM500.94,373.65c-14.32-1.48-28.7-2.66-43.09-3.26-16.25-.68-32.05-3.64-47.08-9.49-1.72-.67-3.44-1.3-5.16-1.87,6.04,20.56,12.08,41.13,18.12,61.7,40.72-2.72,79.07,6.48,115.86,24.24-.07-20.15,2.55-39.61,7.92-58.35-15.03-6.01-30.3-11.29-46.57-12.97ZM500.94,373.65c-14.32-1.48-28.7-2.66-43.09-3.26-16.25-.68-32.05-3.64-47.08-9.49-1.72-.67-3.44-1.3-5.16-1.87,6.04,20.56,12.08,41.13,18.12,61.7,40.72-2.72,79.07,6.48,115.86,24.24-.07-20.15,2.55-39.61,7.92-58.35-15.03-6.01-30.3-11.29-46.57-12.97ZM500.94,373.65c-14.32-1.48-28.7-2.66-43.09-3.26-16.25-.68-32.05-3.64-47.08-9.49-1.72-.67-3.44-1.3-5.16-1.87,6.04,20.56,12.08,41.13,18.12,61.7,40.72-2.72,79.07,6.48,115.86,24.24-.07-20.15,2.55-39.61,7.92-58.35-15.03-6.01-30.3-11.29-46.57-12.97ZM500.94,373.65c-14.32-1.48-28.7-2.66-43.09-3.26-16.25-.68-32.05-3.64-47.08-9.49-1.72-.67-3.44-1.3-5.16-1.87,6.04,20.56,12.08,41.13,18.12,61.7,40.72-2.72,79.07,6.48,115.86,24.24-.07-20.15,2.55-39.61,7.92-58.35-15.03-6.01-30.3-11.29-46.57-12.97ZM500.94,373.65c-14.32-1.48-28.7-2.66-43.09-3.26-16.25-.68-32.05-3.64-47.08-9.49-1.72-.67-3.44-1.3-5.16-1.87,6.04,20.56,12.08,41.13,18.12,61.7,40.72-2.72,79.07,6.48,115.86,24.24-.07-20.15,2.55-39.61,7.92-58.35-15.03-6.01-30.3-11.29-46.57-12.97ZM98.44,691.07c-12.6-5.82-25.8-9.55-39.31-11.83-2.74,8.3-5.48,16.6-8.21,24.9-.37,1.14-.67,2.3-1.04,3.61,1.03.07,1.55.13,2.06.13,26.22,0,52.44-.01,78.66.01-10.31-6.13-21.06-11.69-32.16-16.82ZM177.03,672.49c-16.67-21.56-36.47-39.75-62.65-49.46-11.18-4.15-22.62-6.53-34.22-7.63-6.31,19.16-12.63,38.33-18.94,57.49,23.91,4.48,46.6,13.15,67.81,26.45,4.54,2.84,9.14,5.67,13.7,8.56,16.33.01,32.66.03,49,.07,3.06,0,3.51-1.56,4.18-3.79.45-1.48.89-2.97,1.34-4.45-6.62-9.17-13.31-18.29-20.22-27.24ZM500.94,373.65c-14.32-1.48-28.7-2.66-43.09-3.26-16.25-.68-32.05-3.64-47.08-9.49-1.72-.67-3.44-1.3-5.16-1.87,6.04,20.56,12.08,41.13,18.12,61.7,40.72-2.72,79.07,6.48,115.86,24.24-.07-20.15,2.55-39.61,7.92-58.35-15.03-6.01-30.3-11.29-46.57-12.97ZM500.94,373.65c-14.32-1.48-28.7-2.66-43.09-3.26-16.25-.68-32.05-3.64-47.08-9.49-1.72-.67-3.44-1.3-5.16-1.87,6.04,20.56,12.08,41.13,18.12,61.7,40.72-2.72,79.07,6.48,115.86,24.24-.07-20.15,2.55-39.61,7.92-58.35-15.03-6.01-30.3-11.29-46.57-12.97ZM500.94,373.65c-14.32-1.48-28.7-2.66-43.09-3.26-16.25-.68-32.05-3.64-47.08-9.49-1.72-.67-3.44-1.3-5.16-1.87,6.04,20.56,12.08,41.13,18.12,61.7,40.72-2.72,79.07,6.48,115.86,24.24-.07-20.15,2.55-39.61,7.92-58.35-15.03-6.01-30.3-11.29-46.57-12.97ZM500.94,373.65c-14.32-1.48-28.7-2.66-43.09-3.26-16.25-.68-32.05-3.64-47.08-9.49-1.72-.67-3.44-1.3-5.16-1.87,6.04,20.56,12.08,41.13,18.12,61.7,40.72-2.72,79.07,6.48,115.86,24.24-.07-20.15,2.55-39.61,7.92-58.35-15.03-6.01-30.3-11.29-46.57-12.97ZM500.94,373.65c-14.32-1.48-28.7-2.66-43.09-3.26-16.25-.68-32.05-3.64-47.08-9.49-1.72-.67-3.44-1.3-5.16-1.87,6.04,20.56,12.08,41.13,18.12,61.7,40.72-2.72,79.07,6.48,115.86,24.24-.07-20.15,2.55-39.61,7.92-58.35-15.03-6.01-30.3-11.29-46.57-12.97ZM500.94,373.65c-14.32-1.48-28.7-2.66-43.09-3.26-16.25-.68-32.05-3.64-47.08-9.49-1.72-.67-3.44-1.3-5.16-1.87,6.04,20.56,12.08,41.13,18.12,61.7,40.72-2.72,79.07,6.48,115.86,24.24-.07-20.15,2.55-39.61,7.92-58.35-15.03-6.01-30.3-11.29-46.57-12.97ZM500.94,373.65c-14.32-1.48-28.7-2.66-43.09-3.26-16.25-.68-32.05-3.64-47.08-9.49-1.72-.67-3.44-1.3-5.16-1.87,6.04,20.56,12.08,41.13,18.12,61.7,40.72-2.72,79.07,6.48,115.86,24.24-.07-20.15,2.55-39.61,7.92-58.35-15.03-6.01-30.3-11.29-46.57-12.97ZM500.94,373.65c-14.32-1.48-28.7-2.66-43.09-3.26-16.25-.68-32.05-3.64-47.08-9.49-1.72-.67-3.44-1.3-5.16-1.87,6.04,20.56,12.08,41.13,18.12,61.7,40.72-2.72,79.07,6.48,115.86,24.24-.07-20.15,2.55-39.61,7.92-58.35-15.03-6.01-30.3-11.29-46.57-12.97ZM655.98,703.83c-1.02-3.14-2.04-6.28-3.06-9.42-3.52,1.87-7.02,3.82-10.49,5.84-4.16,2.43-8.21,4.97-12.13,7.64h26.84c-.47-1.63-.77-2.86-1.16-4.06ZM500.94,373.65c-14.32-1.48-28.7-2.66-43.09-3.26-16.25-.68-32.05-3.64-47.08-9.49-1.72-.67-3.44-1.3-5.16-1.87,6.04,20.56,12.08,41.13,18.12,61.7,40.72-2.72,79.07,6.48,115.86,24.24-.07-20.15,2.55-39.61,7.92-58.35-15.03-6.01-30.3-11.29-46.57-12.97ZM500.94,373.65c-14.32-1.48-28.7-2.66-43.09-3.26-16.25-.68-32.05-3.64-47.08-9.49-1.72-.67-3.44-1.3-5.16-1.87,6.04,20.56,12.08,41.13,18.12,61.7,40.72-2.72,79.07,6.48,115.86,24.24-.07-20.15,2.55-39.61,7.92-58.35-15.03-6.01-30.3-11.29-46.57-12.97Z"/>
  <path class="cls-3" d="M550.1,378.28c-.22.63-.42,1.26-.62,1.89-24.46-9.31-49.62-15.34-76.32-15.51-23.72-.15-46.66-4.74-69.11-12.55-.17-.06-.35-.12-.52-.18-6.87-23.41-13.75-46.81-20.62-70.21-.65-2.21-1.3-4.42-1.94-6.62-2.53-8.6-5.05-17.2-7.58-25.79l-2.25-7.68h0c-5.66-19.29-11.32-38.57-16.99-57.86-.52-1.76-.66-3.72-3.54-3.66-2.85.06-2.89,1.93-3.41,3.75-4.28,14.73-8.56,29.45-12.83,44.18-.63,2.17-1.26,4.33-1.89,6.5-2.58,8.88-5.16,17.77-7.74,26.65-.66,2.25-1.31,4.51-1.97,6.76-9.02,31.07-18.05,62.14-27.07,93.21-2.58,1.1-5.15,2.25-7.71,3.44-31.4,14.6-51.91,38.93-62.85,71.53-10.11,30.1-9.03,60.8-3.66,91.46,2.95,16.83,7.3,33.17,12.87,49.09-11.56,38.48-23.19,76.93-34.78,115.4-8.88-12.08-17.92-24.01-27.5-35.5-24.8-29.74-55.39-44.36-89.72-47.8,4.74-14.39,9.48-28.77,14.22-43.16.64-1.94,1.28-3.88,1.92-5.82,37.98-115.28,75.97-230.56,113.96-345.84,1.55-4.72,3.1-9.43,4.66-14.15,8.77-26.63,17.55-53.27,26.33-79.9.7-2.14,1.41-4.27,2.11-6.41,3.72-11.28,7.44-22.57,11.16-33.85,4.84,1.47,9.63,3.27,14.34,5.49,12.55,5.91,25.22,11.57,37.76,17.48,27.14,12.81,55.17,17.88,84.9,10.85,22.19-5.25,43.42-12.48,61.61-26.69,6.65,20.47,13.3,40.94,19.96,61.4.69,2.15,1.39,4.29,2.09,6.43h0c11.96,36.82,23.93,73.62,35.9,110.43.7,2.16,1.4,4.32,2.11,6.48,5.79,17.82,11.58,35.63,17.38,53.45.79,2.43,1.58,4.85,2.37,7.28,4.99,15.34,9.98,30.69,14.98,46.03Z"/>
  <path class="cls-3" d="M628.72,619.98c-5.77,2.9-11.54,5.81-17.2,8.9-.32.17-.63.34-.94.51-1.69.93-3.38,1.87-5.05,2.82-14.11,7.98-27.6,16.68-40.28,26.32-1.86,1.4-3.7,2.83-5.52,4.28-14.93,11.9-28.66,25.2-40.82,40.27-1.31,1.62-2.58,3.25-3.82,4.89h-2.2c-3.51,0-4.76-1.14-5.74-4.41-4.68-15.64-9.38-31.28-14.09-46.91-.63-2.12-1.27-4.23-1.91-6.35-8.41-27.91-16.84-55.81-25.21-83.73-.64-2.11-1.28-4.22-1.91-6.34-.52-1.73-1.04-3.47-1.56-5.2-.82-2.75-1.9-3.63-4.74-3.62-13.61.02-27.23.03-40.84.04-3.21,0-6.42,0-9.63,0-30.99.01-61.99.01-92.98,0,.48-1.29,1-2.57,1.57-3.85,5.34-12.05,9.67-24.57,15.35-36.46,6.85-14.32,13.74-28.76,22.21-42.13,13.12-20.71,30.93-33.78,52.99-39.21h19.74c-.21-.98-.37-1.89-.59-2.76.81-.05,1.63-.09,2.46-.11,37.99-1.15,74.16,6.3,107.92,23.76,1.27.66,2.54,1.31,3.82,1.96,1.23,31.14,10.03,59.34,26.75,84.48,4.1,6.16,8.67,12.14,13.73,17.93h.01c1.84,2.12,3.73,4.19,5.7,6.25,5.57,5.82,11.41,11.31,17.51,16.49,7.29,8.26,13.93,16.92,20,25.94h0c1.76,5.42,3.51,10.82,5.27,16.23Z"/>
  <path class="cls-1" d="M644.6,1038.46c-7.38,19.19-10.82,39.29-8.09,60.68h-7.12c.22-9.81.03-19.65.75-29.42.86-11.5,3.77-22.5,8.01-32.99,2.14.61,4.29,1.18,6.45,1.73Z"/>
  <path class="cls-1" d="M321.52,696.74c5.19,34.18,9.99,68.44,9.99,103.14-.01,25.38-2.61,50.37-11.4,74.42-11.21,30.67-31.28,54.5-58.75,71.23-24.22,14.76-50.06,26.82-74.84,40.7-15.62,8.75-31.3,17.69-45.69,28.27-26.72,19.62-39.99,46.67-39.76,80.06,0,1.53-.1,3.05-.15,4.58h-6.11c-2.4-44.67,18.49-76.99,55.14-99.48,22.88-14.04,47.31-25.58,71.14-38.05,19.1-10,37.81-20.54,54.33-34.58,26.56-22.56,40.7-51.83,46.45-85.65,4.38-25.79,4.26-51.75,1.19-77.57-4.16-34.96-9.72-69.75-14.01-104.7-2.79-22.68-4.84-45.48-6.34-68.29-.89-13.5.67-26.64,4.9-39.37,2.23,0,4.45,0,6.67,0-5.88,15.71-5.75,32.09-5.06,48.58,1.35,32.58,7.43,64.55,12.3,96.7Z"/>
  <path class="cls-1" d="M425.55,427.05c-6.7.33-13.09,1.25-19.15,2.76h-19.36c10.1-4.93,20.98-7.75,32.42-8.75,1.43-.12,2.85-.23,4.27-.33.55,1.88,1.1,3.76,1.65,5.64.06.22.12.45.17.68Z"/>
  <path class="cls-1" d="M701.99,519.29c-.29-.05-.57-.11-.86-.16-3.97-.76-7.92-1.63-11.8-2.64-1.92-1.84-3.89-3.64-5.91-5.42-11.35-10-24.73-16.35-39-20.14-2.36-2.63-4.42-5.34-6.22-8.12,2.76.66,5.52,1.33,8.27,2.03,22.32,5.72,40.2,18.15,55.52,34.45Z"/>
  <path class="cls-1" d="M764.96,762.25c-6.63,51.31-20.77,100.46-45.05,146.14-2.23,4.2-4.56,8.35-6.96,12.46-2.46-.2-4.92-.43-7.37-.69,13.27-23.26,24.78-47.36,33.16-73.11,10.57-32.47,17.73-65.6,21.16-99.58,3.08-30.5,2.83-60.78-1.78-90.72,1.61-.41,3.23-.8,4.85-1.19.6-.14,1.19-.29,1.79-.42.06.38.12.77.18,1.16,5.28,35.35,4.58,70.62.02,105.95Z"/>
  <path class="cls-1" d="M82.34,608.78c-.73,2.21-1.45,4.41-2.18,6.62-9.33-.88-18.78-.94-28.3-.44-17.94.95-34.92,5.92-51.75,11.69v-7.12c12.41-3.24,24.64-7.73,37.25-9.5,15.55-2.19,30.59-2.7,44.98-1.25Z"/>
  <path class="cls-1" d="M299.28,752.22c-3.63,10.23-9.87,18.77-21.28,20.24-5.67.73-12.26-.64-17.55-3.02-16.06-7.25-27.43-20.16-37.62-34.1-8.62-11.8-17.04-23.75-25.58-35.61.77-2.55,1.54-5.1,2.31-7.65,9.69,13.18,19.18,26.53,28.94,39.65,7.63,10.26,16.08,19.7,26.57,27.15.28.2.54.41.83.6,7.71,4.92,15.86,9.79,25.07,5.18,9.59-4.8,13.36-13.97,14.42-24.25,1.58-15.34-1.94-29.92-6.73-44.32-7.03-21.12-16.83-40.96-27.59-60.38-10.58-19.06-19.64-38.69-26.73-59.03,1.12-3.7,2.23-7.41,3.34-11.12,7.71,24.2,18.23,47.35,30.48,69.86,12.64,23.22,24.26,46.91,30.65,72.76,3.61,14.61,5.69,29.37.47,44.04Z"/>
  <path class="cls-1" d="M405.61,359.03c-36.94-12.63-72.6-5.94-107.88,8.38-1.49.61-2.96,1.23-4.4,1.88.78-2.71,1.57-5.42,2.36-8.13,25.19-10.73,51.46-17.03,79.21-15.33,9.65.59,19.44,2.94,28.63,6.1.69,2.36,1.39,4.73,2.08,7.1Z"/>
  <path class="cls-1" d="M762.65,370.77c-12.19,13.38-26.68,24.37-42.64,33.83-12.24,7.26-24.58,14.33-38.72,17.37-16.42,3.53-32.43.65-48.31-3.2.68-2.14,1.47-4.19,2.36-6.17.74.2,1.48.39,2.23.58,25.88,6.54,49.66,3.57,72.64-10.35,16.03-9.72,31.2-20.25,44.06-33.34.52.05,1.04.12,1.56.19,2.31.3,4.58.67,6.82,1.09Z"/>
  <path class="cls-1" d="M796.07,243.72c-2.3-.49-4.61-.94-6.93-1.34-5.82-31.59-19.48-60.43-34.55-88.84-14.19-26.74-29.41-52.97-40.25-81.37-8.28-21.69-13.34-44.02-13.54-67.32-.01-1.36.04-2.72.11-4.07.01-.14.07-.28.15-.44.1-.19.23-.41.37-.71.85-.06,1.83-.2,2.81-.2s1.95.14,2.7.2c.02.24.04.47.06.71.83,9.8,1.3,19.38,2.59,28.83,2.78,20.28,9.27,39.56,18.27,57.82,12.73,25.79,26.29,51.17,39.48,76.74,11.98,23.23,22.3,47.1,27.43,72.89.47,2.37.91,4.74,1.3,7.1Z"/>
  <path class="cls-2" d="M601.15,1023.7c-.81.91-1.62,1.82-2.42,2.74-10.72,12.22-21.16,24.71-31.18,37.5-6.94,8.87-11.32,19.22-13.98,30.2-.39,1.62-.38,3.33-.55,5h-7.13c1.84-15.78,8.51-29.69,18.2-41.84,9.92-12.44,20.45-24.39,31.03-36.29,1.19.55,2.39,1.09,3.6,1.63.81.36,1.62.71,2.43,1.06Z"/>
  <path class="cls-2" d="M369.16,632.95c-3.49,14.96-2.9,30.37-.93,45.57,4.69,36.26,9.95,72.44,14.46,108.72,4.54,36.41,6.51,72.96,3.29,109.62-4.44,50.56-23.92,93.75-62.96,127.19-23.17,19.84-50.3,26.49-80.35,24.92-14.82-.77-29.94-.63-44.6,1.38-26.77,3.68-41.61,21.79-42.17,48.79h-6.11c-1.81-26.28,17.13-50.38,44.23-54.76,12.13-1.96,24.61-1.85,36.95-2.37,14.71-.63,29.64.48,44.11-1.68,23.61-3.51,41.91-17.54,57.74-34.59,24.77-26.69,39.78-58.18,44.83-94.33,4.17-29.88,4.56-59.86,1.51-89.81-3.4-33.35-7.5-66.63-11.5-99.92-1.85-15.45-4.41-30.82-6.26-46.28-3.34-27.96.97-54.64,14-79.8,8.52-16.45,19.02-31.29,31.86-44.14,3.21,0,6.42,0,9.63,0-23.98,21.22-40,48.43-47.73,81.5Z"/>
  <path class="cls-2" d="M638.3,615.11c-1.94,1-3.89,1.99-5.84,2.98-2.85-4.87-5.85-9.65-9.01-14.33h0c-1.49-4.58-2.97-9.15-4.46-13.71,1.87,1.36,3.75,2.7,5.66,4.01,4.89,6.87,9.43,13.9,13.65,21.05Z"/>
  <path class="cls-2" d="M689.58,811.39c.19,36.05-7.46,70.17-23.11,102.51-2.27-.54-4.52-1.1-6.77-1.72,1.2-2.48,2.38-4.96,3.55-7.45,15.78-33.51,20.92-68.87,19.49-105.76-1.47-37.7-7.76-74.34-19.2-109.94,2.03-.98,4.06-1.94,6.1-2.86,4.7,14.83,8.55,30.02,11.73,45.49,5.4,26.33,8.06,52.87,8.21,79.73Z"/>
  <path class="cls-2" d="M382.91,281.72c-16.32-4.79-32.82-8.96-49.63-12-3.5-.63-7.01-1.23-10.52-1.77.66-2.25,1.31-4.51,1.97-6.76,14.63,2.14,29.09,5.55,43.36,9.91,4.3,1.32,8.59,2.65,12.88,4,.64,2.2,1.29,4.41,1.94,6.62Z"/>
  <path class="cls-1" d="M699.56,244.92c-2.32.49-4.64,1.02-6.97,1.58,2.97-25.54.58-50.79-8.14-75.6-5.12-14.56-13.3-27.44-22.52-39.58-29.62-39.02-49.39-83.04-66.17-128.64-.28-.77-.5-1.57-.72-2.34-.04-.16-.08-.32-.13-.47,2.77-.89,4.71-.7,6.18.47,1.17.92,2.04,2.45,2.8,4.53,12.42,33.72,26.62,66.65,45.83,97.14,8.84,14.03,19.04,27.2,28.15,41.06,13.82,21.04,19.8,44.68,21.79,69.48.87,10.9.92,21.7-.1,32.37Z"/>
  <path class="cls-1" d="M556.19,998.46c1.81,1.31,3.65,2.59,5.52,3.85-8.31,16.48-16.97,32.81-25.6,49.14-8.37,15.85-16.56,31.79-24.84,47.69h-7.13c8.23-16.09,16.27-32.28,24.72-48.26,9.21-17.43,18.48-34.83,27.33-52.42Z"/>
  <path class="cls-1" d="M506.54,720.05c-2.12,3.23-4.13,6.5-6.03,9.81,0,0,0,.01-.01.01-.9.49-1.81,1.02-2.71,1.57-24.09,14.76-41.12,35.75-51.63,61.7-15.03,37.13-28.55,74.89-44.24,111.73-6.16,14.46-10.33,28.4-8.69,44.02,1.42,13.59-2.79,26.05-8.13,38.28-16.89,38.62-43.63,67.76-82.02,85.82-14.07,6.62-29.13,8.24-44.32,9.98-14.74,1.69-29.48,3.98-43.94,7.23-5.76,1.3-10.79,5.86-16.15,8.94h-9.17c5.48-7.86,13.4-12.79,22.24-14.98,13.24-3.27,26.8-6.52,40.34-7.11,53.27-2.29,90.54-29.35,116.96-73.63,5.77-9.67,10.81-20.04,14.32-30.7,2.67-8.14,3.6-17.32,3.14-25.93-.76-14.22,1.69-27.07,7.35-40.31,13.82-32.3,26.28-65.19,38.97-97.97,6.36-16.44,12.34-32.96,23.24-47.14,10.51-13.68,22.16-26.04,37.11-35.02,4.48-2.7,8.94-4.8,13.37-6.3Z"/>
  <path class="cls-1" d="M612.86,849.58c-.24,12.92-2.26,25.59-5.32,38.06-1.9-1.48-3.73-3.03-5.48-4.65,2.24-9.91,3.69-19.98,3.83-30.28.43-32.13-7.99-61.12-24.64-86.85,1-2.57,2.12-5.13,3.35-7.65,3.26,5.08,6.21,10.4,8.91,15.89,11.67,23.76,19.85,48.63,19.35,75.48Z"/>
  <path class="cls-1" d="M59.13,679.24c-6.96-1.18-14-1.98-21.08-2.48-12.56-.89-25.29.46-37.94.81v-7.13c8.63-.41,17.27-1.35,25.89-1.16,11.99.27,23.75,1.45,35.22,3.61-.7,2.12-1.4,4.23-2.09,6.35Z"/>
  <path class="cls-1" d="M201.63,914.13c-22.2,18.98-47.75,32.63-72.58,47.52-16.98,10.17-33.79,20.73-49.87,32.25-13.37,9.59-24.03,22.04-28.76,38.4-3.89,13.43-3.43,27.22-1.97,40.9.83,7.82,2.61,15.54,4.11,23.28-2.51-.82-4.97-1.78-7.36-2.85-1.56-11.4-3.36-22.77-4.21-34.21-2.27-30.23,10.48-54.03,34.54-71.06,20.4-14.44,42.06-27.13,63.47-40.08,20.57-12.45,41.7-24.03,59.57-40.4,21.75-19.93,34.37-43.58,30.84-74.2-2.69-23.34-13.35-42.62-26.85-61.42-19.6-27.29-44.18-47.88-71.95-64.37,4.04,0,8.08,0,12.12.01,12.14,7.66,24.07,15.69,34.33,25.38,21.64,20.43,41.23,43.26,52.39,71.66,16.06,40.86,5.53,80.67-27.82,109.19Z"/>
  <path class="cls-2" d="M683.35,1099.14h-6.11c-1.56-18.81,1.07-36.44,7.66-52.91,2.27.31,4.54.6,6.82.86-6.64,16.07-9.53,33.39-8.37,52.05Z"/>
  <path class="cls-2" d="M855.08,906.54c-3.14.92-6.29,1.8-9.46,2.64h-.01c-5.99-2.77-12.43-5.01-19.34-6.71-10.37-2.54-21.52-1.94-32.33-2.53-3.87-.21-7.17,1.22-9.48,4.76-3.68,5.63-7.8,11.02-11.58,16.58-.4.04-.79.06-1.19.09-2.27.15-4.52.29-6.79.4,4.23-6.67,8.58-13.26,12.93-19.86,4.04-6.12,9.76-8.73,17.26-8.7,19.65.06,39.11,1.11,56.58,11.29,1.15.67,2.28,1.34,3.41,2.04Z"/>
  <path class="cls-2" d="M1067.59,1086.11c-3.1,2.22-6.33,4.21-9.74,5.95h-.01c-31.49-4.23-58.18-19.4-83.16-38.26-15.82-11.94-30.53-25.09-44.16-39.31,2.2-.9,4.39-1.82,6.57-2.76.61.61,1.22,1.21,1.83,1.82,21.51,21.32,44.22,41.08,71.1,55.47,18.15,9.71,37.05,16.75,57.57,17.09Z"/>
  <path class="cls-1" d="M757.91,1050.24c2.29-.04,4.59-.1,6.89-.18-2.63,4.78-4.31,10.1-5.48,15.52-2.38,11.01-3.19,22.36-4.69,33.56h-6.11c-.23-17.05,1.79-33.7,9.39-48.9Z"/>
  <path class="cls-1" d="M889.04,1099.14h-7.13c-2.87-21.8-4.94-43.83-12.96-64.32,2.22-.57,4.44-1.15,6.64-1.76,3.27,8.87,5.4,18.16,7.23,27.52,2.49,12.77,4.18,25.7,6.22,38.56Z"/>
  <path class="cls-2" d="M1095.18,699.82c-15.64,13.39-29.63,28.31-40.91,45.7-15.08,23.23-19.12,48.84-17.09,75.86,3.44,45.63,18.79,87.71,38.11,128.65,7.51,15.93,14.14,32.14,15.93,50,2.11,21.11-11.46,36.77-32.73,36.97-19.5.18-37.29-6.44-54.31-14.91-13.62-6.77-25.72-15.21-36.63-24.92,2.13-1.13,4.25-2.27,6.36-3.44,9.93,8.68,20.82,16.25,33,22.35,14.57,7.29,29.8,13.02,46.29,14.14,4.18.28,8.56.13,12.62-.81,14.43-3.32,20.95-15.24,18.48-31.87-2.18-14.59-7.39-28.12-13.56-41.3-15.16-32.4-28.44-65.43-35.54-100.67-5.26-26.15-7.21-52.33-1.55-78.68,3-13.97,9.53-26.31,17.29-38.14,12.99-19.79,29.81-35.9,48.22-51.34,1.68,5.65-.04,9.04-3.98,12.41Z"/>
  <path class="cls-2" d="M884.37,512.22c-2.59.43-5.19.86-7.79,1.27h0c-3.66-4.24-7.56-8.31-11.67-12.26-25.82-24.85-55.04-44.45-88.57-57.31-4.68-1.8-9.74-2.96-14.73-3.56-21.02-2.52-28.35,13.01-29.23,26.61-.94,14.43,3.5,27.98,9.95,40.49,2.89,5.6,5.84,11.16,8.83,16.7-2.85-.06-5.7-.16-8.55-.3-.52-.96-1.04-1.92-1.56-2.89-7.79-14.46-13.93-29.7-15.48-46.39-.79-8.49.29-16.62,4.31-24.12,7.96-14.88,21.38-20.32,39.39-15.53,22.51,5.99,42.67,17.12,61.76,30.1,19.83,13.49,38.5,28.51,53.35,47.19Z"/>
  <path class="cls-2" d="M373.39,249.31c-13.75-4.64-27.41-9.51-40.92-14.77.63-2.17,1.26-4.33,1.89-6.5,12.14,4.86,24.4,9.4,36.77,13.59h0l2.25,7.68Z"/>
  <path class="cls-2" d="M531.17,93.63c-6.29,19.58-18.9,34.71-34.66,47.29-6.19,4.94-12.57,9.51-19.15,13.69-.7-2.14-1.4-4.28-2.09-6.43,10.37-6.72,20.1-14.52,29.12-23.51,21.31-21.23,27.41-47.42,23.57-76.18-2.14-16.14-6.17-32.04-9.41-48.15-.05-.21-.09-.42-.13-.63h6.75c.05.21.09.42.14.63,3.02,13.45,6.73,27.09,8.93,40.98,2.78,17.52,2.43,35.17-3.07,52.31Z"/>
  <path class="cls-2" d="M587.13,244.68c-21.98,14.97-45.83,23.72-71.76,26.84-.71-2.16-1.41-4.32-2.11-6.48,32.35-3.64,60.86-15.87,84.83-38.35,13.32-12.49,19.04-28.4,19.98-45.88,2.79-52.08-10.94-100.08-37.08-144.9-6.68-11.45-12.47-23.42-18.89-35.57-.02-.04-.04-.07-.06-.11,3.38-1.06,5.47-.95,7.03.11,1.16.78,2.03,2.08,2.91,3.82,7.8,15.39,16.41,30.36,24.44,45.64,13.11,24.94,21.12,51.66,25.6,79.32,2.26,13.97,2.91,28.29,3.27,42.48.8,31.26-12.2,55.41-38.16,73.08Z"/>
  <path class="cls-2" d="M1020.06,981.04c-7.61,1.99-14.52.61-21.07-2.36,2.22-1.44,4.42-2.9,6.61-4.39,3.56,1.04,7.38,1.23,11.31.76,4.02-.48,6.23-2.58,5.47-6.31-.37-1.84-.75-3.72-1.22-5.58,1.35-1.01,2.7-2.03,4.04-3.07.53-.41,1.05-.81,1.57-1.23,1.22,4.22,1.42,9.04,1.68,13.46.31,5.18-3.75,7.5-8.39,8.72Z"/>
  <path class="cls-2" d="M1099.88,631.78c-.27,2.75-2.28,4.5-5.37,6.19-16.78,9.17-33.6,18.31-49.88,28.33-25.23,15.55-45.02,36.88-61.76,61.1-6.16,8.9-12.41,17.87-17.29,27.48-7.88,15.5-9.23,32.51-8.09,49.58,1.09,16.25,3.92,32.15,8.79,47.45-1.78,1.36-3.58,2.69-5.4,3.99-3.23-10.01-5.73-20.32-7.67-30.9-3.64-19.84-4.26-39.72.98-59.46,2.83-10.63,8.36-19.89,14.35-28.97,17.39-26.34,36.52-51.36,62.94-69.15,19.2-12.92,39.83-23.69,59.85-35.39,2.59-1.51,5.3-2.8,7.96-4.19.33.98.53,1.87.59,2.68.05.45.04.87,0,1.26Z"/>
  <path class="cls-2" d="M849.5,262.86c-2.39-1.24-4.79-2.43-7.19-3.56-2.04-16.66-6.18-32.92-11.31-48.97-15.31-47.95-34.94-94.12-57.97-138.86-8.2-15.92-17.13-31.48-24.75-47.67-3.41-7.24-4.43-15.6-6.51-23.46,0-.06-.02-.11-.04-.17,3.25-1.05,5.15-.98,6.33.17.93.87,1.41,2.42,1.73,4.61,2,13.72,7.28,26.47,14.46,38.22,30.41,49.83,51.99,103.6,71.08,158.47,6.91,19.86,11.77,40.31,14.17,61.22Z"/>
  <path class="cls-2" d="M909.04,508.05c-2.45.42-4.88.84-7.33,1.26h-.01c-6.31-9.26-11.09-19.59-17.57-28.72-13.93-19.67-30.98-35.75-54.14-44.5-6.25-2.36-12.11-6.07-17.67-9.87-10.63-7.25-15.93-17.92-16.85-30.51-.34-4.58-.32-9.04.06-13.37,2.13,1.15,4.22,2.39,6.27,3.72-.14,5.45.43,11.04,1.74,16.79,1.9,8.31,7.09,14.62,14.17,19.14,4.83,3.08,9.83,6.14,15.14,8.22,29.59,11.56,49.88,33.3,65.19,60.08,3.49,6.1,7,12.13,11,17.76Z"/>
  <path class="cls-2" d="M1099.4,413.74v6.24c-4.23.75-8.57,1.35-12.83,2.32-17.07,3.91-29.48,14.37-36.37,29.89-6.98,15.68-11.85,32.29-17.58,48.52-3.82,10.84-6.95,21.96-11.44,32.5-5.67,13.35-14.71,23.65-30.15,25.88-9.84,1.43-19.23-.88-28.21-4.7-1.82-.77-3.62-1.56-5.41-2.37-.44-2.54-.88-5.07-1.33-7.6,6.44,3.06,13.16,5.56,20.29,7.25,15.99,3.77,28.65-1.18,35.73-15.91,5.89-12.25,10.17-25.35,14.3-38.35,6.04-19,10.66-38.48,21.79-55.49,12.01-18.35,29.44-26.72,51.21-28.18Z"/>
  <path class="cls-1" d="M350.59-.24c-.35.2-.7.39-1.04.58-13.24,7.41-26.12,14.42-38.81,21.79-20.28,11.78-42.22,13.47-64.92,11.51-34.12-2.94-66.83-11.94-99.33-22.19-6.93-2.18-14.59-3.04-21.88-2.87-10.04.23-14.76,8.26-11.61,17.78,6.87,20.81,22.15,32.3,42.83,35.93,15.44,2.71,31.27,3.43,46.97,4.27,18.86,1.01,37.91.56,55.94,6.9-.69,2.06-1.37,4.13-2.04,6.19-17.32-5.25-35.37-6.18-53.63-6.35-20.33-.2-40.75-.72-60.18-7.85-19.09-7.01-31.98-20.06-36.85-40.1-3-12.35,5.77-23.73,18.72-23.7,7.85.02,16.04.84,23.46,3.22,27.6,8.82,55.35,16.85,84.16,20.44,17.99,2.24,36.25,5.09,53.97-.63,10.37-3.35,20.1-8.71,29.99-13.43,4.27-2.04,8.45-4.42,12.25-7.21,2.42-1.77,4.92-2.96,7.52-3.7,4.53-1.29,9.35-1.23,14.48-.58Z"/>
  <path class="cls-1" d="M456.75,85.64c-.48.39-.96.77-1.44,1.14-.75-2.32-1.5-4.63-2.25-6.95,25.43-21.81,22.41-56.04-6.63-72.92-4.27-2.48-8.84-4.43-13.24-6.57-.23-.11-.45-.22-.68-.33,6.67-1.16,11.67-1.27,16.24.33,5.95,2.06,11.18,6.98,18.43,16.17,16.91,21.46,11.91,51.05-10.43,69.13Z"/>
  <path class="cls-2" d="M1099.61,252.14v6.21c-6.7-.63-13.22-1.88-19.71-1.72-10.77.27-21.59.92-32.25,2.38-8.33,1.14-15.12,6-20.1,12.79-19.92,27.14-47.52,41.93-79.34,50.5-7.8,2.1-15.56,4.32-23.3,6.63-1.51-2.14-3.05-4.24-4.63-6.32,1.77-.49,3.54-.97,5.32-1.46,14.98-4.08,30.03-8.15,44.62-13.4,19.36-6.96,36.01-18.57,48.09-35.31,9.81-13.58,22.53-20.52,38.73-22.05,14.22-1.34,28.36-.7,42.57,1.75Z"/>
  <path class="cls-1" d="M72.87,217.59c-21.02,18.76-44.09,33.91-71.86,40.25-.38.09-.76.17-1.13.24v-7.08c3.95-.64,7.85-1.64,11.5-2.99,19.67-7.28,37.2-18.49,53.41-31.86,6.84-5.64,9.27-11.81,7.98-21-7.95-56.32-22.89-110.54-46.71-162.26-1.45-3.15-2.85-6.32-4.22-9.52,1.71-1.76,3.51-3.43,5.4-5.01,14.96,34.6,29.68,69.33,38.49,106.11,5.42,22.66,8.84,45.8,13.17,68.73.28,1.49.58,2.99.85,4.49,1.38,7.9-.65,14.33-6.88,19.9Z"/>
  <path class="cls-2" d="M812.32,494.81c-9.65-5.15-18.2-2.63-23.92,6.67-4.4,7.15-6.78,14.7-6.06,22.35,2.34-.1,4.69-.21,7.03-.33-.49-5.64.64-11.35,3.84-17.06,4.7-8.39,10.53-10.5,18.18-4.6,6.51,5.02,12.54,10.94,17.74,17.3.26.32.53.64.79.97,2.57-.29,5.14-.6,7.7-.92-6.62-9.72-14.59-18.66-25.3-24.38ZM912.2,628.47c-2.02.32-4.03.63-6.05.95-.01.67-.03,1.34-.08,2.01.59,20.8-4.51,34.44-19.49,41.47-13.22,6.21-27.28,10.78-41.25,15.19-7.35,2.32-14.11-2.45-14.93-10.13-1.26-11.88-2.09-23.82-2.66-35.76-2.07.36-4.14.74-6.21,1.12.78,11.57,1.61,23.13,2.23,34.71.8,15,15.15,19.16,24.52,16.39,12.93-3.83,25.77-8.34,38.02-13.92,18.4-8.37,26.83-23.54,26.64-43.76-.3-2.74-.5-5.51-.74-8.27Z"/>
  <path class="cls-1" d="M1099.28,158.47c-3.53-4.18-6.72-7.77-9.72-11.52-17.03-21.29-27.14-45.88-33.49-72.07-5.81-23.96-10.92-48.08-16.32-72.14-.04-.2-.08-.4-.11-.61,2.4.52,4.76,1.16,7.07,1.91,2.77,12.61,5.52,25.14,8.28,37.67,5.21,23.59,10.07,47.38,20.66,69.25,5.64,11.63,13.02,22.49,20.45,33.12,3.1,4.42,4.35,8.38,3.18,14.39Z"/>
  <path class="cls-2" d="M491.15,650.3c-11.53,4.11-22,10.51-29.74,18.97-18.44,20.15-28.04,44.36-34.67,70.19-2.9,11.28-5.75,22.59-9.08,33.74-.89,2.96-3.48,5.41-5.29,8.1-.84-3.02-2.2-6.01-2.43-9.08-1.76-23.49-3.29-47-4.41-63.39-.84-38.82,8.11-68.32,20.74-96.85,4.01-9.07,8.65-18.11,14.5-26.05,6.92-9.38,15.47-15.63,25.17-19.36-.64-2.11-1.28-4.22-1.91-6.34-14.95,5.64-26.81,16.49-35.27,31.98-5.73,10.49-10.39,21.63-14.81,32.76-9.82,24.74-15.71,50.34-14.96,82.81,1.25,19.74,2.85,45.1,4.44,70.47.28,4.41,1.86,8,6.44,9.25,4.95,1.36,8.93-.54,10.95-5.07,2.66-5.99,5.31-12.11,6.84-18.45,4.95-20.38,9.36-40.9,18.53-59.93,10.56-21.9,24.97-39.43,46.87-47.4-.63-2.12-1.27-4.23-1.91-6.35Z"/>
  <path class="cls-1" d="M580.4,471.42c-13.79-5.61-27.29-11.96-40.65-18.76-.04-.98-.08-1.98-.1-2.97-.03-1.58-.06-3.15-.06-4.72.11.05.21.1.32.15,12.38,5.99,24.89,11.77,37.54,17.22.98,3.03,1.97,6.06,2.95,9.08Z"/>
  <path class="cls-1" d="M553.62,389.09c-2.04-.83-4.07-1.66-6.11-2.47.61-2.16,1.27-4.31,1.97-6.45.47.18.94.36,1.41.55.91,2.79,1.81,5.58,2.73,8.37Z"/>
  <path class="cls-2" d="M618.99,590.05c-5.34-3.89-10.53-7.96-15.54-12.24-3.43-3.88-7-7.67-10.72-11.36-4.04-4.01-8.2-7.8-12.49-11.37h-.01c-5.06-5.8-9.63-11.78-13.73-17.94,19.43,12.34,36.01,28.16,50.42,46.53.69,2.12,1.38,4.25,2.07,6.38Z"/>
  <path class="cls-2" d="M607.66,665.87c-9.28,7.81-20.08,10.65-31.7,5.55-5.59-2.45-11.17-5.21-16.23-8.61,1.82-1.45,3.66-2.88,5.52-4.28,4.12,2.54,8.57,4.64,12.93,6.76,7.96,3.88,15.54,2.12,22.56-2.59,8.55-5.74,11.1-14.52,6.34-26.73-.5-1.27-1.01-2.52-1.55-3.76,1.67-.95,3.36-1.89,5.05-2.82.31-.17.62-.34.94-.51,1.14,2.94,2.13,5.97,2.98,9.1,2.84,10.49,1.96,20.5-6.84,27.89Z"/>
  <path class="cls-3" d="M623.45,603.75c-6.07-9.02-12.71-17.68-20-25.94,5.01,4.28,10.2,8.35,15.54,12.24,1.49,4.56,2.97,9.13,4.46,13.7Z"/>
  <path class="cls-2" d="M764.76,655.14c-.6.13-1.19.28-1.79.42-1.62.39-3.24.78-4.85,1.19-1.64-10.66-3.82-21.28-6.61-31.85-11.02-41.86-30.83-78.64-62.18-108.41,3.88,1.01,7.83,1.88,11.8,2.64.29.05.57.11.86.16,1.58,1.67,3.12,3.38,4.64,5.13,32.72,37.67,50.67,81.83,58.13,130.72Z"/>
  <path class="cls-2" d="M780.55,346.39c-5.17,8.94-11.19,17.02-17.9,24.38-2.24-.42-4.51-.79-6.82-1.09-.52-.07-1.04-.14-1.56-.19,6.66-6.79,12.7-14.27,17.92-22.68,16.1-25.99,21.65-54.34,19.5-84.62-.48-6.73-1.35-13.33-2.55-19.81,2.32.4,4.63.85,6.93,1.34,5.99,35.66,3.23,70.24-15.52,102.67Z"/>
  <path class="cls-3" d="M699.56,244.92c-1.25,13.08-4.12,25.96-9.05,38.55-14.12,36.13-48.76,59.73-87.57,60.14-12.1.13-23.97-1.11-35.67-3.28,1.23-2.15,2.52-4.29,3.85-6.42,4.08.71,8.19,1.34,12.31,1.87,33.87,4.39,63.59-3.76,86.64-30.46,10.91-12.64,16.99-27.6,20.16-43.76.99-5.03,1.78-10.05,2.35-15.06h.01c2.33-.56,4.65-1.09,6.97-1.58Z"/>
  <path class="cls-2" d="M635.34,412.6c-.89,1.98-1.68,4.03-2.36,6.17-.47-.11-.94-.22-1.41-.34-26.41-6.48-50.89-18.18-75.89-28.49-.69-.28-1.37-.56-2.06-.85-.92-2.79-1.82-5.58-2.73-8.37,5.14,1.98,10.24,4.1,15.33,6.35,22.48,9.92,45.19,19.27,69.12,25.53Z"/>
  <path class="cls-2" d="M644.42,490.93c-2.11-.57-4.24-1.07-6.38-1.52-19.94-4.21-39.04-10.43-57.64-17.99-.98-3.02-1.97-6.05-2.95-9.08,8.77,3.79,17.6,7.42,26.5,10.85,11.02,4.25,22.67,6.85,34.25,9.62,1.8,2.78,3.86,5.49,6.22,8.12Z"/>
  <path class="cls-2" d="M875.59,1033.06c-2.2.61-4.42,1.19-6.64,1.76-1.83-4.68-3.97-9.27-6.5-13.77-8.66-15.37-20.7-19.67-37.27-13.79-3.81,1.35-7.69,2.83-11.05,5-13.05,8.46-26,17.05-38.77,25.91-4.64,3.22-8.04,7.31-10.56,11.89-2.3.08-4.6.14-6.89.18.82-1.63,1.69-3.24,2.64-4.83,3.17-5.35,8.03-10.06,13.01-13.91,9.08-7.04,18.59-13.6,28.36-19.65,7.27-4.51,14.91-8.84,22.96-11.62,17.4-6.03,31.58-.67,41.73,14.78,3.76,5.73,6.65,11.78,8.98,18.05Z"/>
  <path class="cls-2" d="M712.95,920.85c-11.14,19.11-23.79,37.41-35.33,56.32-8.11,13.29-16.07,26.7-23.41,40.42-3.66,6.85-6.91,13.8-9.61,20.87-2.16-.55-4.31-1.12-6.45-1.73,2.15-5.32,4.64-10.5,7.38-15.55,12.5-23.05,25.57-45.86,39.8-67.86,7.05-10.92,13.86-21.94,20.25-33.16,2.45.26,4.91.49,7.37.69Z"/>
  <path class="cls-2" d="M607.54,887.64c-1.49,6.09-3.22,12.13-5.11,18.13-10.56,33.55-25.01,65.33-40.72,96.54-1.87-1.26-3.71-2.54-5.52-3.85,12.59-24.99,24.34-50.38,33.91-76.8,4.6-12.72,8.98-25.55,11.96-38.67,1.75,1.62,3.58,3.17,5.48,4.65Z"/>
  <path class="cls-3" d="M518.38,962.57c-2.79-3.51-5.44-7.13-7.96-10.84-1.95-11.1-6.21-22.01-12.75-32.7-2.65-4.35-5.73-8.07-9.21-11.14-1.16-3.3-2.25-6.65-3.26-10.07,12.11,7.18,19.71,18.04,25.21,30.72,4.96,11.43,7.56,22.77,7.97,34.03Z"/>
  <path class="cls-2" d="M584.6,758.21c-1.23,2.52-2.35,5.08-3.35,7.65-5.08-7.86-10.94-15.41-17.54-22.65-4.15-4.56-9.48-8.23-14.72-11.6-16.03-10.3-32.35-10.6-48.48-1.75,1.9-3.31,3.91-6.58,6.03-9.81,0,0,0-.01.01-.01,17.3-5.91,34.19-2.84,50.75,8.93,11.25,8,20.06,18.01,27.3,29.24Z"/>
  <path class="cls-2" d="M406.4,429.81c-22.06,5.43-39.87,18.5-52.99,39.21-8.47,13.37-15.36,27.81-22.21,42.13-5.68,11.89-10.01,24.41-15.35,36.46-.57,1.28-1.09,2.56-1.57,3.85-2.22,0-4.44,0-6.67,0,1.33-4.03,2.94-8.01,4.81-11.96,7.91-16.63,14.15-34.04,21.97-50.72,9.14-19.5,21.08-37.1,38.6-50.33,4.49-3.39,9.18-6.26,14.05-8.63h19.36Z"/>
  <path class="cls-2" d="M142.73,707.9c-4.04-.01-8.08-.01-12.12-.01h-.01c-10.31-6.13-21.06-11.69-32.16-16.82-12.6-5.82-25.8-9.55-39.31-11.83.69-2.12,1.39-4.23,2.09-6.35,23.91,4.48,46.6,13.15,67.81,26.45,4.54,2.84,9.14,5.67,13.7,8.56Z"/>
  <path class="cls-2" d="M199.56,692.08c-.77,2.55-1.54,5.1-2.31,7.65-6.62-9.17-13.31-18.29-20.22-27.24-16.67-21.56-36.47-39.75-62.65-49.46-11.18-4.15-22.62-6.53-34.22-7.63.73-2.21,1.45-4.41,2.18-6.62,34.33,3.44,64.92,18.06,89.72,47.8,9.58,11.49,18.62,23.42,27.5,35.5Z"/>
  <path class="cls-2" d="M295.69,361.16c-.79,2.71-1.58,5.42-2.36,8.13-37.85,16.91-59.01,47.32-66.78,87.86-4.65,24.27-2.5,48.63,2.06,72.79,2.3,12.14,5.36,24,9.07,35.62-1.11,3.71-2.22,7.42-3.34,11.12-5.57-15.92-9.92-32.26-12.87-49.09-5.37-30.66-6.45-61.36,3.66-91.46,10.94-32.6,31.45-56.93,62.85-71.53,2.56-1.19,5.13-2.34,7.71-3.44Z"/>
  <path class="cls-2" d="M455.31,86.78c-18.19,14.21-39.42,21.44-61.61,26.69-29.73,7.03-57.76,1.96-84.9-10.85-12.54-5.91-25.21-11.57-37.76-17.48-4.71-2.22-9.5-4.02-14.34-5.49.67-2.06,1.35-4.13,2.04-6.19,1.22.42,2.43.88,3.63,1.37,12.99,5.29,25.79,11.07,38.55,16.91,14.78,6.76,29.53,13.48,45.61,16.67,22.18,4.41,43.5.14,64.47-6.59,15.21-4.88,29.67-11.39,42.02-21.96.01-.01.03-.02.04-.03.75,2.32,1.5,4.63,2.25,6.95Z"/>
  <path class="cls-2" d="M549.48,380.17c-.7,2.14-1.36,4.29-1.97,6.45-15.03-6.01-30.3-11.29-46.57-12.97-14.32-1.48-28.7-2.66-43.09-3.26-16.25-.68-32.05-3.64-47.08-9.49-1.72-.67-3.44-1.3-5.16-1.87-.69-2.37-1.39-4.74-2.08-7.1.17.06.35.12.52.18,22.45,7.81,45.39,12.4,69.11,12.55,26.7.17,51.86,6.2,76.32,15.51Z"/>
  <path class="cls-2" d="M539.75,452.66c-1.28-.65-2.55-1.3-3.82-1.96-33.76-17.46-69.93-24.91-107.92-23.76-.83.02-1.65.06-2.46.11-.05-.23-.11-.46-.17-.68-.55-1.88-1.1-3.76-1.65-5.64,40.72-2.72,79.07,6.48,115.86,24.24,0,1.57.03,3.14.06,4.72.02.99.06,1.99.1,2.97Z"/>
  <path class="cls-2" d="M616.92,583.67c-14.41-18.37-30.99-34.19-50.42-46.53-16.72-25.14-25.52-53.34-26.75-84.48,13.36,6.8,26.86,13.15,40.65,18.76,6.42,19.72,12.83,39.43,19.25,59.15,5.76,17.7,11.51,35.4,17.27,53.1Z"/>
  <path class="cls-2" d="M600.74,662.7c-7.02,4.71-14.6,6.47-22.56,2.59-4.36-2.12-8.81-4.22-12.93-6.76,12.68-9.64,26.17-18.34,40.28-26.32.54,1.24,1.05,2.49,1.55,3.76,4.76,12.21,2.21,20.99-6.34,26.73Z"/>
  <path class="cls-2" d="M652.92,694.41c-3.52,1.87-7.02,3.82-10.49,5.84-4.16,2.43-8.21,4.97-12.13,7.64-38.4-.01-76.8-.03-115.21.08,1.24-1.64,2.51-3.27,3.82-4.89,12.16-15.07,25.89-28.37,40.82-40.27,5.06,3.4,10.64,6.16,16.23,8.61,11.62,5.1,22.42,2.26,31.7-5.55,8.8-7.39,9.68-17.4,6.84-27.89-.85-3.13-1.84-6.16-2.98-9.1,5.66-3.09,11.43-6,17.2-8.9,8.07,24.81,16.13,49.62,24.2,74.43Z"/>
  <path class="cls-2" d="M550.89,380.72c-.47-.19-.94-.37-1.41-.55.2-.63.4-1.26.62-1.89.26.82.52,1.63.79,2.44Z"/>
  <path class="cls-2" d="M603.45,577.81c-6.1-5.18-11.94-10.67-17.51-16.49-1.97-2.06-3.86-4.13-5.7-6.24,4.29,3.57,8.45,7.36,12.49,11.37,3.72,3.69,7.29,7.48,10.72,11.36Z"/>
  <path class="cls-2" d="M577.45,462.34c-12.65-5.45-25.16-11.23-37.54-17.22-.11-.05-.21-.1-.32-.15-.07-20.15,2.55-39.61,7.92-58.35,2.04.81,4.07,1.64,6.11,2.47,7.94,24.42,15.88,48.84,23.83,73.25Z"/>
  <path class="cls-1" d="M1099.88,886.68v24.1c-3.75,13.05-6.17,26.49-9.44,39.68-1.66,6.7-3.92,13.07-6.73,19.14h0c-1.29,2.81-2.7,5.53-4.22,8.19-5.06,8.91-11.34,17.11-18.6,24.64-8.12,8.44-16.37,16.76-24.67,25.02-1.82,1.82-3.64,3.63-5.47,5.44-10.24,10.15-20.54,20.24-30.77,30.4-.07.06-.13.12-.2.19-1.53,1.52-3.06,3.04-4.57,4.56-10.36,10.37-20.47,20.93-29.59,32.3h-8.49c9.91-12.82,20.99-24.55,32.48-35.92,1.57-1.57,3.15-3.12,4.74-4.67,4.37-4.27,8.78-8.5,13.19-12.73,5.6-5.37,11.14-10.82,16.66-16.27,1.76-1.76,3.51-3.5,5.27-5.25,7.03-7,14.04-14.03,21.11-20.99,10.93-10.76,19.25-22.79,25.58-35.83,1.35-2.76,2.6-5.57,3.77-8.42,4.53-11.03,7.81-22.71,10.18-34.88,2.55-13.03,5.69-26.05,9.77-38.7Z"/>
  <path class="cls-1" d="M1099.88,202.75v10.64c-5.27-6.81-10.41-13.73-15.56-20.64-12.05-16.17-24.58-31.98-36.83-47.99-18.94-24.76-44.41-39.47-73.6-49.06-14.73-4.84-29.36-10.49-43.22-17.4-19.96-9.95-34.37-26.73-48.26-43.66-8.65-10.54-16.02-21.95-21.68-34.3h7.54c12.42,25.69,30.61,47.27,53.79,64.35,11.09,8.17,24.52,13.43,37.33,18.99,12.87,5.59,26.32,9.77,39.42,14.81,19.3,7.43,35.08,19.92,47.89,35.78,18.1,22.4,35.41,45.42,52.99,68.23.06.08.13.17.19.25Z"/>
  <path class="cls-1" d="M1032.93,352.83c-9.52,31.68-9.72,64.02-1.14,95.8,1.39,5.13,3.31,10.13,5.53,15.05,1.45,3.22,3.02,6.4,4.67,9.55,2.33,4.55,4.8,9.04,7.18,13.51,6.58,12.38,14.51,24.03,21.62,36.13.62,1.06,1.22,2.12,1.8,3.19,1.3,2.4,2.5,4.83,3.6,7.29,6.67,14.92,9.68,30.87,9.79,47.34.13,18.23-.14,36.47-.47,54.7h0c-.05,2.54-.09,5.05-.14,7.58-.15,8.03-.3,16.07-.42,24.1-.17,10.9-.25,21.79.16,32.63.11,2.93.26,5.85.45,8.76h0c.93,14.25,2.89,28.39,6.8,42.38,2,7.16,4.49,14.03,7.52,20.59v14.47c-8.75-14.71-14.39-30.88-17.56-48.32-1.39-7.66-2.34-15.34-2.98-23.02-.24-2.95-.44-5.9-.59-8.85h0c-.98-18.58-.36-37.2.24-55.84.04-1.15.07-2.3.1-3.45.08-2.49.14-4.98.2-7.47h0c.38-16.52.46-33.04.77-49.56.34-17.69-2.98-34.15-8.99-49.78-1.01-2.62-2.09-5.21-3.25-7.78-4.1-9.14-9.1-18-14.79-26.67-4.93-7.52-9.67-15.22-14.06-23.11h0c-1.7-3.05-3.34-6.12-4.92-9.22-1.38-2.71-2.72-5.44-4-8.19-9.42-20.22-10.25-42.31-10.58-64.21-.24-16.49,1.76-32.8,6.69-48.58,6.46-20.66,17.49-37.81,38.29-46.74,11.59-4.98,23.45-5.95,35.43-4.95v6.68c-1.42-.11-2.83-.19-4.25-.25-34.74-1.33-54.09,17.64-62.7,46.24Z"/>
</svg>